<?xml version="1.0" encoding="UTF-8"?>
<svg width="180px" height="43px" viewBox="0 0 180 43" version="1.1" xmlns="http://www.w3.org/2000/svg" xmlns:xlink="http://www.w3.org/1999/xlink">
    <!-- Generator: Sketch 43.1 (39012) - http://www.bohemiancoding.com/sketch -->
    <title>logo-wit-kro-ncrv-monitor</title>
    <desc>Created with Sketch.</desc>
    <defs></defs>
    <g id="Welcome" stroke="none" stroke-width="1" fill="none" fill-rule="evenodd">
        <g id="straat" transform="translate(-4320.000000, -951.000000)" fill-rule="nonzero" fill="#FFFFFF">
            <g id="logo-wit-kro-ncrv-monitor" transform="translate(4320.000000, 951.000000)">
                <path d="M41.1929915,12.0877778 L45.4729385,7.70416667 C45.6009008,7.57642597 45.6776388,7.40652578 45.6887342,7.22638889 C45.6954022,7.0713081 45.637325,6.92039801 45.5283011,6.80951311 C45.4192772,6.69862821 45.2690382,6.63766626 45.1132791,6.64111111 L41.9842422,6.64111111 C41.7182224,6.6555622 41.4723318,6.78680368 41.312878,6.99944444 L37.5963974,10.6305556 L37.5963974,3.58333333 C37.6139621,3.40745839 37.5539922,3.23265334 37.4320518,3.10428575 C37.3101115,2.97591815 37.1382237,2.90664483 36.9609991,2.91444444 L34.4074172,2.91444444 C34.2322445,2.91017515 34.0636519,2.98099037 33.9444197,3.1089208 C33.8251876,3.23685123 33.7667762,3.40960041 33.7840076,3.58333333 L33.7840076,20.5086111 C33.7626189,20.6832519 33.8196076,20.8584037 33.9397665,20.9873285 C34.0599255,21.1162533 34.2310282,21.1858328 34.4074172,21.1775 L36.996965,21.1775 C37.1721378,21.1817693 37.3407303,21.1109541 37.4599625,20.9830236 C37.5791947,20.8550932 37.637606,20.682344 37.6203746,20.5086111 L37.6203746,15.5875 L38.3876481,14.8230556 L41.9842422,20.7952778 C42.115347,21.0768552 42.4043311,21.2514943 42.7155497,21.2372222 L45.6048136,21.2372222 C45.7702393,21.2446846 45.9308737,21.1807843 46.0456491,21.061858 C46.1604245,20.9429317 46.2182151,20.7805076 46.204246,20.6161111 C46.2098043,20.4730417 46.1722235,20.331593 46.0963482,20.21 L41.1929915,12.0877778 L41.1929915,12.0877778 Z M48.9016916,21.1894444 L51.4792507,21.1894444 C51.6564754,21.1972441 51.8283631,21.1279707 51.9503035,20.9996031 C52.0722439,20.8712355 52.1322137,20.6964305 52.114649,20.5205556 L52.114649,13.3538889 C52.114649,10.4155556 53.4214115,10.0452778 54.5123784,10.0452778 C55.4196849,10.0738155 56.3038914,10.3372761 57.0779489,10.8097222 C57.1745887,10.859647 57.2809185,10.8881687 57.3896537,10.8933333 C57.6773813,10.8933333 57.9651088,10.6783333 57.9651088,10.2005556 L57.9651088,7.66833333 C58.0121972,7.28049888 57.7754928,6.91420717 57.4016424,6.79638889 C56.6046971,6.49513687 55.7603536,6.33740618 54.9080038,6.33055556 C53.9058051,6.3310162 52.9289354,6.64429988 52.114649,7.22638889 C52.1147796,7.06376847 52.0483447,6.90812705 51.9306886,6.79541339 C51.8130326,6.68269972 51.654331,6.6226618 51.4912394,6.62916667 L48.9016916,6.62916667 C48.7365777,6.61927828 48.5747015,6.6778067 48.4543819,6.79089721 C48.3340624,6.90398772 48.2659953,7.06158714 48.2662933,7.22638889 L48.2662933,20.5086111 C48.2444264,20.6854396 48.3029419,20.8627611 48.4258634,20.9921616 C48.548785,21.121562 48.7232746,21.189527 48.9016916,21.1775 L48.9016916,21.1894444 Z M41.1929915,24.4025 C39.9177197,24.4005367 38.6779191,24.8206828 37.6683292,25.5969444 L37.6683292,25.4058333 C37.6901961,25.2290048 37.6316806,25.0516834 37.5087591,24.9222829 C37.3858375,24.7928824 37.2113479,24.7249175 37.0329309,24.7369444 L34.4074172,24.7369444 C34.2310282,24.7286117 34.0599255,24.7981911 33.9397665,24.9271159 C33.8196076,25.0560408 33.7626189,25.2311925 33.7840076,25.4058333 L33.7840076,38.5686111 C33.7626189,38.7432519 33.8196076,38.9184037 33.9397665,39.0473285 C34.0599255,39.1762533 34.2310282,39.2458328 34.4074172,39.2375 L36.996965,39.2375 C37.1741897,39.2452996 37.3460774,39.1760263 37.4680178,39.0476587 C37.5899581,38.9192911 37.649928,38.7444861 37.6323633,38.5686111 L37.6323633,32.3097222 C37.6323633,29.6819444 38.6513983,28.1291667 40.3657748,28.1291667 C40.9032569,28.0769453 41.4321613,28.2912996 41.7804352,28.7025 C42.1242601,29.2692644 42.2795127,29.9297904 42.2240151,30.5897222 L42.2240151,38.5447222 C42.2064504,38.7205972 42.2664203,38.8954022 42.3883606,39.0237698 C42.510301,39.1521374 42.6821887,39.2214107 42.8594134,39.2136111 L45.4369726,39.2136111 C45.6133616,39.2219439 45.7844643,39.1523645 45.9046232,39.0234396 C46.0247822,38.8945148 46.0817708,38.719363 46.0603822,38.5447222 L46.0603822,29.4311111 C46.1888044,28.0939813 45.7240159,26.767751 44.7881338,25.8008701 C43.8522517,24.8339891 42.538844,24.3231248 41.1929915,24.4025 L41.1929915,24.4025 Z M73.0468269,24.8563889 C72.2503724,24.5534007 71.4057119,24.3956108 70.5531883,24.3905556 C69.5495289,24.3815418 68.5683289,24.6865141 67.7478448,25.2625 C67.7515097,25.0987982 67.6861774,24.9410524 67.5677096,24.8275611 C67.4492417,24.7140697 67.2884729,24.655212 67.1244352,24.6652778 L64.5228988,24.6652778 C64.3485159,24.6557288 64.1783579,24.7209329 64.0553415,24.8444444 C63.9380038,24.9799572 63.8778563,25.1554541 63.8875005,25.3341667 L63.8875005,38.5686111 C63.8699357,38.7444861 63.9299056,38.9192911 64.051846,39.0476587 C64.1737863,39.1760263 64.3456741,39.2452996 64.5228988,39.2375 L67.1124465,39.2375 C67.2888356,39.2458328 67.4599383,39.1762533 67.5800972,39.0473285 C67.7002562,38.9184037 67.7572448,38.7432519 67.7358562,38.5686111 L67.7358562,31.4019444 C67.7358562,29.7655556 68.0235837,28.0933333 70.1335856,28.0933333 C71.0226119,28.1212133 71.8895353,28.3762184 72.6512015,28.8338889 C72.7478413,28.8838137 72.8541711,28.9123354 72.9629063,28.9175 C73.110313,28.920512 73.2527922,28.8645907 73.3585317,28.7622222 C73.4931383,28.6164773 73.5623929,28.4224169 73.55035,28.2247222 L73.55035,25.7283333 C73.5913541,25.3447229 73.3558638,24.985302 72.9868836,24.8683333 L73.0468269,24.8563889 Z M87.3253056,24.6772222 L84.591894,24.6772222 C84.2539652,24.6619683 83.9524973,24.8872355 83.8725752,25.2147222 L81.1751296,33.4205556 L78.477684,25.2386111 C78.4076704,24.9015865 78.103561,24.6642458 77.7583652,24.6772222 L75.0249536,24.6772222 C74.8584057,24.673277 74.6980088,24.7399717 74.583688,24.8607051 C74.4693671,24.9814384 74.4118746,25.1448548 74.4255213,25.3102778 C74.4097786,25.4212076 74.4097786,25.5337924 74.4255213,25.6447222 L79.0771164,38.7836111 C79.1560352,39.0780473 79.4188101,39.2865225 79.7245033,39.2972222 L82.5178581,39.2972222 C82.7216651,39.2972222 82.997404,39.2016667 83.1772337,38.7716667 L87.9487152,25.6327778 C87.9659614,25.5259644 87.9659614,25.4170912 87.9487152,25.3102778 C87.9660048,25.1428921 87.9101477,24.9761901 87.7954008,24.8527204 C87.680654,24.7292507 87.5181197,24.6609597 87.3492829,24.6652778 L87.3253056,24.6772222 Z M65.7337521,10.2244444 C66.6539815,10.2554786 67.5236509,10.6514304 68.1494895,11.3243057 C68.775328,11.997181 69.1054879,12.891235 69.066596,13.8077778 C69.173411,15.0613381 68.5625622,16.2679854 67.4872673,16.9275233 C66.4119723,17.5870613 65.0555319,17.5870613 63.980237,16.9275233 C62.904942,16.2679854 62.2940932,15.0613381 62.4009082,13.8077778 C62.3620163,12.891235 62.6921762,11.997181 63.3180148,11.3243057 C63.9438534,10.6514304 64.8135228,10.2554786 65.7337521,10.2244444 L65.7337521,10.2244444 Z M65.7337521,21.3088889 C69.7743424,21.1661319 72.9403039,17.7983551 72.8190426,13.7719444 C73.0081734,11.1277121 71.6994629,8.59959553 69.4273807,7.22006236 C67.1552984,5.8405292 64.3002172,5.8405292 62.0281349,7.22006236 C59.7560527,8.59959553 58.4473422,11.1277121 58.636473,13.7719444 C58.5153048,17.8028566 61.6884229,21.1725443 65.7337521,21.3088889 L65.7337521,21.3088889 Z M61.4418165,33.4086111 L58.3967001,33.4086111 C58.1523837,33.4120516 57.9408916,33.5786614 57.8811883,33.8147222 C57.3087226,34.8622655 56.2129744,35.520031 55.0159016,35.5347222 C53.0295575,35.5347222 51.4193075,33.9304092 51.4193075,31.9513889 C51.4193075,29.9723685 53.0295575,28.3680556 55.0159016,28.3680556 C56.2205633,28.3782589 57.3237234,29.042294 57.8931769,30.1 C57.970277,30.3292832 58.1785389,30.4896196 58.4206774,30.5061111 L61.4657938,30.5061111 C61.6035025,30.4939544 61.7297063,30.4245815 61.8134645,30.315 C61.903887,30.1637934 61.9256732,29.981464 61.8734078,29.8133333 C61.0817185,26.6545776 58.2707156,24.4111341 55.003913,24.3308333 C50.9093899,24.4543266 47.6897292,27.85993 47.8107247,31.9394444 C47.6897292,36.0189589 50.9093899,39.4245623 55.003913,39.5480556 C58.3076572,39.4671746 61.140364,37.1750066 61.8973851,33.97 C61.9362983,33.8307581 61.9098523,33.68145 61.8254532,33.5638889 C61.7292553,33.4521497 61.5895576,33.3869078 61.4418165,33.3847222 L61.4418165,33.4086111 Z M13.3793302,28.4158333 C8.50030169,28.3616358 4.05003931,25.6278087 1.81028571,21.3088889 C0.624632488,23.4911032 0.00639296224,25.9344114 0.0119886471,28.4158333 C0.0119886471,36.2633333 6.0063122,42.6297222 13.3913188,42.6297222 C20.7763254,42.6297222 26.8066149,36.2633333 26.8066149,28.4158333 C26.8132317,25.9342864 26.1949296,23.490731 25.0083179,21.3088889 C22.7685643,25.6278087 18.3183019,28.3616358 13.4392734,28.4158333 L13.3793302,28.4158333 Z" id="Shape"></path>
                <path d="M13.3793302,14.2138889 C18.2583587,14.2680864 22.708621,17.0019135 24.9483746,21.3208333 C26.1553778,19.1442745 26.7943389,16.7005316 26.8066149,14.2138889 C26.8066149,6.36638889 20.8122914,0.0597222222 13.3793302,0.0597222222 C5.94636897,0.0597222222 3.05356632e-12,6.36638889 3.05356632e-12,14.2138889 C-0.00508646077,16.6952484 0.613121904,19.1384334 1.79829707,21.3208333 C4.03805067,17.0019135 8.48831304,14.2680864 13.3673415,14.2138889" id="Shape"></path>
                <path d="M113.124874,5.57805556 C113.124874,5.44666667 113.124874,5.38694444 113.316693,5.38694444 L117.356867,5.38694444 C120.749654,5.38694444 123.626929,7.56083333 123.626929,12.1355556 C123.626929,16.7102778 120.749654,18.8841667 117.356867,18.8841667 L113.292715,18.8841667 C113.16084,18.8841667 113.100897,18.8841667 113.100897,18.6930556 L113.124874,5.57805556 Z M115.522604,7.62055556 L115.522604,16.6505556 L117.23698,16.6505556 C119.502834,16.6505556 121.145279,15.2291667 121.145279,12.1355556 C121.145279,9.04194444 119.502834,7.62055556 117.23698,7.62055556 L115.522604,7.62055556 Z M132.102903,15.8025 C132.198812,15.6472222 132.234778,15.6233333 132.366653,15.6233333 L134.308814,15.6233333 C134.344826,15.6195235 134.380637,15.6321367 134.406245,15.6576501 C134.431853,15.6831635 134.444513,15.7188425 134.440689,15.7547222 C134.452147,15.8179145 134.452147,15.8826411 134.440689,15.9458333 C133.786724,17.9268564 131.864951,19.2115181 129.777105,19.0633333 C128.443854,19.0917544 127.158937,18.5657654 126.230872,17.6116605 C125.302807,16.6575556 124.81542,15.3615128 124.885737,14.0347222 C124.832994,12.7085214 125.329478,11.418981 126.258902,10.4681398 C127.188327,9.51729866 128.469044,8.98868474 129.801082,9.00611111 C131.167406,9.00578229 132.472214,9.57208041 133.402454,10.5691373 C134.332693,11.5661942 134.804414,12.90403 134.704439,14.2616667 L134.704439,14.5841667 C134.704439,14.7155556 134.704439,14.7752778 134.512621,14.7752778 L127.2475,14.7752778 C127.422893,15.856154 128.247044,16.7184813 129.322038,16.9459099 C130.397032,17.1733385 131.501786,16.719096 132.102903,15.8025 L132.102903,15.8025 Z M127.307444,12.8522222 L132.30671,12.8522222 C132.005351,11.7471083 130.959248,11.010521 129.813071,11.0963889 C128.683495,11.067528 127.669185,11.781729 127.319432,12.8522222 L127.307444,12.8522222 Z M125.641022,39.1777778 C125.641022,39.3091667 125.641022,39.3688889 125.449203,39.3688889 L123.435111,39.3688889 C123.303236,39.3688889 123.243292,39.3688889 123.243292,39.1777778 L123.243292,30.2791667 L120.42596,36.8963889 C120.391469,37.0157249 120.286446,37.1013359 120.16221,37.1113889 L118.603686,37.1113889 C118.47945,37.1013359 118.374427,37.0157249 118.339936,36.8963889 L115.522604,30.2791667 L115.522604,39.1658333 C115.522604,39.2972222 115.522604,39.3569444 115.330785,39.3569444 L113.292715,39.3569444 C113.16084,39.3569444 113.100897,39.3569444 113.100897,39.1658333 L113.100897,26.0269444 C113.100897,25.8955556 113.100897,25.8358333 113.292715,25.8358333 L115.690445,25.8358333 C115.820617,25.8308809 115.940153,25.9071016 115.990161,26.0269444 L119.382948,33.9461111 L122.715792,26.0627778 C122.7658,25.9429349 122.885335,25.8667142 123.015508,25.8716667 L125.413237,25.8716667 C125.545113,25.8716667 125.605056,25.8716667 125.605056,26.0627778 L125.641022,39.1777778 Z M132.378641,29.4908333 C135.158102,29.5237242 137.387705,31.7894654 137.365761,34.5587869 C137.343818,37.3281084 135.078589,39.558496 132.298954,39.5476624 C129.519319,39.5368288 127.271674,37.2888522 127.271478,34.5194444 C127.237474,33.1652048 127.766652,31.8571576 128.733747,30.9049372 C129.700843,29.9527167 131.019886,29.4409694 132.378641,29.4908333 L132.378641,29.4908333 Z M132.378641,37.4697222 C133.140477,37.4741323 133.868015,37.1545064 134.378549,36.5911114 C134.889084,36.0277163 135.134115,35.2740739 135.05211,34.5194444 C135.171557,33.4962762 134.690857,32.4956486 133.816107,31.9465764 C132.941357,31.3975043 131.827915,31.3975043 130.953165,31.9465764 C130.078414,32.4956486 129.597714,33.4962762 129.717162,34.5194444 C129.631725,35.2739323 129.87353,36.0288866 130.381817,36.59461 C130.890105,37.1603333 131.616558,37.4830484 132.378641,37.4816667 L132.378641,37.4697222 Z M139.320068,29.9208333 C139.320068,29.7894444 139.320068,29.7297222 139.511886,29.7297222 L141.418081,29.7297222 C141.549956,29.7297222 141.6099,29.7297222 141.6099,29.9208333 L141.6099,30.6136111 C142.399305,29.907739 143.426565,29.5239368 144.487175,29.5386111 C145.383512,29.4551916 146.271187,29.7696216 146.913502,30.3980585 C147.555817,31.0264953 147.887467,31.9050459 147.820019,32.7994444 L147.820019,39.2255556 C147.820019,39.3569444 147.820019,39.4166667 147.628201,39.4166667 L145.722006,39.4166667 C145.590131,39.4166667 145.530187,39.4166667 145.530187,39.2255556 L145.530187,33.5758333 C145.530187,32.1305556 144.942744,31.5691667 143.887743,31.5691667 C142.832742,31.5691667 141.597911,32.4888889 141.597911,34.7822222 L141.597911,39.1658333 C141.597911,39.2972222 141.597911,39.3569444 141.406093,39.3569444 L139.499898,39.3569444 C139.368023,39.3569444 139.308079,39.3569444 139.308079,39.1658333 L139.320068,29.9208333 Z M149.58235,26.0627778 C149.58235,25.9313889 149.58235,25.8716667 149.774168,25.8716667 L151.944114,25.8716667 C152.075989,25.8716667 152.135932,25.8716667 152.135932,26.0627778 L152.135932,28.2605556 C152.135932,28.3919444 152.135932,28.4516667 151.944114,28.4516667 L149.774168,28.4516667 C149.642293,28.4516667 149.58235,28.4516667 149.58235,28.2605556 L149.58235,26.0627778 Z M149.714225,29.885 C149.714225,29.7536111 149.714225,29.6938889 149.906044,29.6938889 L151.812238,29.6938889 C151.944114,29.6938889 152.004057,29.6938889 152.004057,29.885 L152.004057,39.1777778 C152.004057,39.3091667 152.004057,39.3688889 151.812238,39.3688889 L149.906044,39.3688889 C149.774168,39.3688889 149.714225,39.3688889 149.714225,39.1777778 L149.714225,29.885 Z M160.156337,29.6819444 C160.288212,29.6819444 160.348155,29.6819444 160.348155,29.8730556 L160.348155,31.5691667 C160.348155,31.7005556 160.348155,31.7602778 160.156337,31.7602778 L157.279061,31.7602778 L157.279061,35.8930556 C157.279061,36.9322222 157.638721,37.4697222 158.597813,37.4697222 C159.171138,37.490495 159.742578,37.3928949 160.276223,37.1830556 C160.319749,37.1743681 160.364572,37.1743681 160.408098,37.1830556 C160.504008,37.1830556 160.539974,37.2666667 160.539974,37.3622222 L160.539974,38.9388889 C160.539974,39.1180556 160.539974,39.2136111 160.384121,39.2733333 C159.674042,39.4924297 158.933429,39.5972655 158.190199,39.5838889 C157.314918,39.6466247 156.456012,39.3240253 155.840126,38.7012177 C155.224241,38.0784101 154.913254,37.2179684 154.98923,36.3469444 L154.98923,31.7722222 L153.346785,31.7722222 C153.21491,31.7722222 153.154967,31.7722222 153.154967,31.5811111 L153.154967,29.9208333 C153.154967,29.7894444 153.154967,29.7297222 153.346785,29.7297222 L154.98923,29.7297222 L154.98923,26.9108333 C154.98923,26.7794444 154.98923,26.7197222 155.181048,26.7197222 L157.087243,26.7197222 C157.219118,26.7197222 157.279061,26.7197222 157.279061,26.9108333 L157.279061,29.6819444 L160.156337,29.6819444 Z M166.462365,29.4908333 C169.241826,29.5237242 171.471428,31.7894654 171.449485,34.5587869 C171.427542,37.3281084 169.162313,39.558496 166.382678,39.5476624 C163.603043,39.5368288 161.355398,37.2888522 161.355202,34.5194444 C161.321198,33.1652048 161.850376,31.8571576 162.817471,30.9049372 C163.784566,29.9527167 165.10361,29.4409694 166.462365,29.4908333 L166.462365,29.4908333 Z M166.462365,37.4697222 C167.224201,37.4741323 167.951738,37.1545064 168.462273,36.5911114 C168.972807,36.0277163 169.217839,35.2740739 169.135833,34.5194444 C169.255281,33.4962762 168.774581,32.4956486 167.899831,31.9465764 C167.02508,31.3975043 165.911639,31.3975043 165.036888,31.9465764 C164.162138,32.4956486 163.681438,33.4962762 163.800886,34.5194444 C163.715449,35.2739323 163.957253,36.0288866 164.465541,36.59461 C164.973829,37.1603333 165.700282,37.4830484 166.462365,37.4816667 L166.462365,37.4697222 Z M179.829707,31.9394444 C179.829707,32.0588889 179.829707,32.1544444 179.673854,32.1544444 L179.541979,32.1544444 C178.941301,31.8160337 178.265751,31.6313528 177.575841,31.6169444 C176.376976,31.6169444 175.501805,32.1902778 175.501805,34.2208333 L175.501805,39.2136111 C175.501805,39.345 175.501805,39.4047222 175.309987,39.4047222 L173.403792,39.4047222 C173.271917,39.4047222 173.211974,39.4047222 173.211974,39.2136111 L173.211974,29.9208333 C173.211974,29.7894444 173.211974,29.7297222 173.403792,29.7297222 L175.309987,29.7297222 C175.441862,29.7297222 175.501805,29.7297222 175.501805,29.9208333 L175.501805,30.4463889 C176.148213,29.8383649 177.010969,29.5117264 177.899535,29.5386111 C178.496501,29.5417864 179.08851,29.646824 179.649877,29.8491667 C179.806883,29.8849031 179.907474,30.0378719 179.877661,30.1955556 L179.829707,31.9394444 Z" id="Shape"></path>
                <polygon id="Shape" points="99.8654305 1.15861111 101.052307 1.15861111 101.052307 43 99.8654305 43"></polygon>
            </g>
        </g>
    </g>
</svg>