<svg data-name="Layer 1" xmlns="http://www.w3.org/2000/svg" viewBox="0 0 118.78 44.87"><title>de-monitor-logo-white</title><path d="M15.04 29.94a15 15 0 0 1-13-7.46 15 15 0 1 0 28 7.46 14.78 14.78 0 0 0-2-7.46 15 15 0 0 1-13 7.46m0-14.94a15 15 0 0 1 13 7.46 14.79 14.79 0 0 0 2-7.46 15 15 0 0 0-30 0 14.82 14.82 0 0 0 2 7.46 15 15 0 0 1 13-7.46m27.68 4.58V5.18c0-.15.06-.21.21-.21h4.52c3.8 0 7 2.39 7 7.41s-3.22 7.41-7 7.41h-4.56c-.11 0-.17-.06-.17-.21zm4.6-12.15H45.4v9.91h1.92c2.54 0 4.37-1.57 4.37-5s-1.8-4.91-4.37-4.91zm14.32 10.29a2.77 2.77 0 0 0 2.62-1.31c.11-.17.15-.19.3-.19h2.18a.13.13 0 0 1 .15.15.56.56 0 0 1 0 .21 5.11 5.11 0 0 1-5.23 3.43 5.33 5.33 0 0 1-5.48-5.17v-.36a5.52 5.52 0 1 1 11 .23v.36c0 .15-.06.21-.21.21h-8.15a2.72 2.72 0 0 0 2.82 2.44zm0-6.48a2.85 2.85 0 0 0-2.75 1.92h5.53a2.72 2.72 0 0 0-2.78-1.92zm-4.89 16.44c0-.15-.06-.21-.21-.21h-2.65a.35.35 0 0 0-.34.21l-3.8 8.7-3.86-8.7a.35.35 0 0 0-.34-.21h-2.66c-.15 0-.21.06-.21.21v14.39c0 .15.06.21.21.21h2.3c.15 0 .21-.06.21-.21v-9.75l3.16 7.26a.33.33 0 0 0 .3.23h1.75a.33.33 0 0 0 .3-.23l3.13-7.26v9.75c0 .15.06.21.21.21h2.29c.15 0 .21-.06.21-.21zm2.29 9.26a5.72 5.72 0 1 1 5.91 5.53h-.19a5.46 5.46 0 0 1-5.72-5.19v-.34zm2.73 0a3 3 0 1 0 3-3 3 3 0 0 0-3 3zm10.9 5.13c0 .15.06.21.21.21h2.16c.15 0 .21-.06.21-.21v-4.8c0-2.52 1.22-3.54 2.56-3.54 1.17 0 1.83.61 1.83 2.2v6.14c0 .15.06.21.21.21h2.13c.15 0 .21-.06.21-.21v-7a3.39 3.39 0 0 0-3.73-3.58 4.8 4.8 0 0 0-3.22 1.19v-.76c0-.15-.06-.21-.21-.21h-2.14c-.15 0-.21.06-.21.21zm11.75 0c0 .15.06.21.21.21h2.13c.15 0 .21-.06.21-.21v-10.2c0-.15-.06-.21-.21-.21h-2.12c-.15 0-.21.06-.21.21zm-.15-12c0 .15.06.21.21.21h2.41c.15 0 .21-.06.21-.21v-2.39c0-.15-.06-.21-.21-.21h-2.4c-.15 0-.21.06-.21.21zm8.62 1.62v-3c0-.15-.06-.21-.21-.21h-2.13c-.15 0-.21.06-.21.21v3H88.5c-.15 0-.21.06-.21.21v1.87c0 .15.06.21.21.21h1.83v5a3.31 3.31 0 0 0 3.56 3.55 8 8 0 0 0 2.45-.34c.17-.06.17-.17.17-.36v-1.76c0-.11 0-.19-.15-.19h-.15a4.73 4.73 0 0 1-1.88.32c-1.07 0-1.47-.59-1.47-1.74v-4.52h3.18c.15 0 .21-.06.21-.21v-1.86c0-.15-.06-.21-.21-.21zm4.85 5.28a5.72 5.72 0 1 1 5.91 5.53h-.19a5.46 5.46 0 0 1-5.71-5.19q-.01-.24-.01-.37zm2.73 0a3 3 0 1 0 3-3 3 3 0 0 0-3 2.97zm18.3-4.81a.33.33 0 0 0-.26-.38 6 6 0 0 0-2-.34 3.8 3.8 0 0 0-2.62 1v-.57c0-.15-.06-.21-.21-.21h-2.13c-.15 0-.21.06-.21.21v10.2c0 .15.06.21.21.21h2.13c.15 0 .21-.06.21-.21V36.6c0-2.22 1-2.86 2.33-2.86a4.76 4.76 0 0 1 2.2.59.37.37 0 0 0 .15 0c.13 0 .17-.11.17-.23z" fill="#fff" data-name="Menu- -Top"/></svg>