<?xml version="1.0" encoding="utf-8"?>
<!-- Generator: Adobe Illustrator 22.0.1, SVG Export Plug-In . SVG Version: 6.00 Build 0)  -->
<svg version="1.1" id="Layer_1" xmlns="http://www.w3.org/2000/svg" xmlns:xlink="http://www.w3.org/1999/xlink" x="0px" y="0px"
	 viewBox="0 0 233.1 113.4" style="enable-background:new 0 0 233.1 113.4;" xml:space="preserve">
<style type="text/css">
	.st0{fill:#485253;stroke:#485253;stroke-miterlimit:10;}
	.st1{fill:#CCDDDD;}
	.st2{fill:#FFFFFF;}
	.st3{clip-path:url(#SVGID_2_);}
	.st4{fill:#C0392B;}
	.st5{fill:#8E44AD;}
	.st6{fill:none;stroke:#485253;stroke-width:2;stroke-linecap:round;stroke-linejoin:round;}
	.st7{fill:#485253;}
	.st8{fill:#F1C40F;stroke:#485253;stroke-width:2;stroke-linecap:round;stroke-linejoin:round;}
	.st9{fill:#C0392B;stroke:#485253;stroke-width:2;stroke-linecap:round;stroke-linejoin:round;}
	.st10{fill:#F0F1F1;stroke:#485253;stroke-width:2;stroke-linecap:round;stroke-linejoin:round;}
	.st11{fill:#2C3E50;stroke:#485253;stroke-width:2;stroke-linecap:round;stroke-linejoin:round;}
	.st12{fill:#465761;}
	.st13{fill:#757888;stroke:#485253;stroke-linecap:round;stroke-linejoin:round;}
	.st14{fill:#C7CAD2;stroke:#485253;stroke-width:0.5;stroke-linecap:round;stroke-linejoin:round;}
	.st15{fill:#CD9C12;}
</style>
<title>Asset 1</title>
<g id="Layer_2_1_">
	<g id="politie_auto">
		<path class="st0" d="M120.5,5.7c-0.7-0.5-1.5-0.7-2.3-0.5l-5.3,1.3c-0.4,0.1-0.6,0.5-0.5,0.9l0,0c0.1,0.4,0.5,0.6,0.9,0.5l5.3-1.3
			c0.3-0.1,0.7,0,1,0.2s0.5,0.6,0.5,1v12.8c0,0.4-0.2,0.7-0.5,0.9c-0.3,0.2-0.7,0.3-1,0.2l-8.1-2V5.2c0-2.6-2.1-4.7-4.7-4.7H83.3
			c-2.6,0-4.7,2.1-4.7,4.7v18.1c0,2.6,2.1,4.7,4.7,4.7h0.1v2.6c0,1,1.5,0.3,2.5,0.3h16.8c1,0,1.1,0.6,1.1-0.3V28h1.9
			c2.6,0,4.7-2.1,4.7-4.7v-2l7.8,1.9c0.2,0.1,0.4,0.1,0.7,0.1c0.6,0,1.2-0.2,1.7-0.6c0.6-0.5,1-1.3,1-2.1V7.8
			C121.5,7,121.1,6.2,120.5,5.7z"/>
		<path class="st1" d="M109,23.3c0,1.8-1.5,3.2-3.2,3.2H90.4c-0.4,0-0.8,0.2-0.8,0.6s0.2,0.8,0.6,0.8c0.1,0,0.1,0,0.2,0h11.9V30
			c0,0.2-0.2,0.3-0.3,0.3H85.2c-0.2,0-0.3-0.1-0.3-0.3l0,0v-2h2.3c0.4,0,0.8-0.2,0.8-0.6s-0.2-0.8-0.6-0.8c-0.1,0-0.1,0-0.2,0h-3.8
			c-1.8,0-3.3-1.4-3.3-3.2l0,0V5.2C80,3.4,81.5,2,83.3,2h22.4c1.8,0,3.3,1.4,3.3,3.2C109,5.2,109,23.3,109,23.3z"/>
		<path class="st2" d="M170,55.9c0,0,49.2,1,57.5,17.2c1.4,4.3,3.6,4,4.3,5.1c0.9,2-0.8,18.5-0.8,18.5s-14.5,3.3-19.9,3.3v-8.4
			c0,0-0.7-19-20.4-19S170,92.8,170,92.8s0.1,5,1,7.1H58.2c0.5-2.4,0.9-4.9,1.1-7.4c0-2.5-2.1-20.1-20.1-20.1S18.2,93,18.2,93
			c-0.3,2.3-0.3,4.6,0.1,6.9c0,0-17.3-3-17.3-18.4c0-7.2,4.5-9.4,4.5-9.4l0.2-9c0.3-2.9,1.5-5.6,3.5-7.7L28.4,35
			c0,0,25.3-2,30.2-2.7c3.8-0.5,44.9-2.2,52.5-0.7c0,0,15.9,1.1,26.7,6.5S170,55.9,170,55.9z"/>
		<g>
			<g>
				<defs>
					<path id="SVGID_1_" d="M170,55.9c0,0,49.2,1,57.5,17.2c1.4,4.3,3.6,4,4.3,5.1c0.9,2-0.8,18.5-0.8,18.5s-14.5,3.3-19.9,3.3v-8.4
						c0,0-0.7-19-20.4-19S170,92.8,170,92.8s0.1,5,1,7.1H58.2c0.5-2.4,0.9-4.9,1.1-7.4c0-2.5-2.1-20.1-20.1-20.1S18.2,93,18.2,93
						c-0.3,2.3-0.3,4.6,0.1,6.9c0,0-17.3-3-17.3-18.4c0-7.2,4.5-9.4,4.5-9.4l0.2-9c0.3-2.9,1.5-5.6,3.5-7.7L28.4,35
						c0,0,25.3-2,30.2-2.7c3.8-0.5,44.9-2.2,52.5-0.7c0,0,15.9,1.1,26.7,6.5S170,55.9,170,55.9z"/>
				</defs>
				<clipPath id="SVGID_2_">
					<use xlink:href="#SVGID_1_"  style="overflow:visible;"/>
				</clipPath>
				<g class="st3">
					<polygon class="st4" points="65.8,100.7 103.1,68.5 112.8,68.5 75.4,100.7 					"/>
					<polygon class="st5" points="84.7,76.4 109,55.6 118.4,55.6 94.1,76.4 					"/>
					<polygon class="st4" points="87.9,100.7 125.3,68.5 135,68.5 97.6,100.7 					"/>
					<polygon class="st5" points="106.9,76.4 131.1,55.6 140.6,55.6 116.3,76.4 					"/>
					<polygon class="st4" points="109.6,100.7 147,68.5 156.7,68.5 119.3,100.7 					"/>
					<polygon class="st5" points="128.6,76.4 152.9,55.6 162.3,55.6 138,76.4 					"/>
					<polygon class="st4" points="131.4,100.7 168.7,68.5 178.4,68.5 141,100.7 					"/>
					<polygon class="st5" points="150.3,76.4 174.6,55.6 184,55.6 159.7,76.4 					"/>
					<polygon class="st4" points="153.1,100.7 190.4,68.5 200.1,68.5 162.8,100.7 					"/>
					<polygon class="st5" points="171.8,76.4 196.1,55.6 205.5,55.6 181.2,76.4 					"/>
				</g>
			</g>
		</g>
		<path class="st6" d="M42.5,54.6l24.4,34.2c0,0,3.5,4.9,7.4,4.9h95.6"/>
		<path class="st6" d="M95,35.1c0,0,10.8,29.3,5.7,58.6"/>
		<path class="st6" d="M162.6,60c0,0,5.2,14.4,0,33.8"/>
		<path class="st6" d="M170,55.9c0,0,6.7,3.7,8.4,6.4c11.7-1.9,33.4,4.9,33.4,4.9"/>
		<rect x="51.6" y="61.2" class="st7" width="7.5" height="1.6"/>
		<rect x="105" y="61.2" class="st7" width="7.5" height="1.6"/>
		<path class="st6" d="M28.6,38.9l-12.1,13c-0.6,0.7-1,1.6-1,2.5c0,3.2,11.5,17.7,11.5,17.7"/>
		<path class="st8" d="M1,79.6h18.1c2-3.3,7.9-7.5,7.9-7.5H5.5C5.5,72.1,1.6,73.7,1,79.6"/>
		<path class="st9" d="M5.9,61.6c0,3.1,3.5,2.7,3.5,2.7h11.8l-5.4-8.9H9.2C7.6,57.1,6.4,59.3,5.9,61.6"/>
		<path class="st8" d="M228.7,75.5c-0.5-0.8-0.9-1.6-1.2-2.5c-1.4-2.7-4.1-5.1-7.3-7c-10,0-10,3.6-10,3.6l6.6,5.8L228.7,75.5"/>
		<path class="st10" d="M42.5,54.6V51c0,0,1.9-8.2,8.3-13.6c0,0,10.8-2.3,44.2-2.3c9.8,0,21.6,0.8,31.7,3.7
			c15,4.5,29,11.7,41.5,21.2c0,0-24.2-4.8-68.1-4.8C76.7,55.2,42.5,54.6,42.5,54.6z"/>
		<path class="st11" d="M168.2,60l-17.1-2.3c-2.8-9.8-9.4-13.3-9.4-13.3C151,48.6,159.9,53.9,168.2,60"/>
		<path class="st6" d="M42.5,54.6V51c0,0,1.9-8.2,8.3-13.6c0,0,10.8-2.3,44.2-2.3c9.8,0,21.6,0.8,31.7,3.7c15,4.5,29,11.7,41.5,21.2
			c0,0-24.2-4.8-68.1-4.8C76.7,55.2,42.5,54.6,42.5,54.6z"/>
		<path class="st6" d="M170,55.9c0,0,49.2,1,57.5,17.2c1.4,4.3,3.6,4,4.3,5.1c0.9,2-0.8,18.5-0.8,18.5s-14.5,3.3-19.9,3.3v-8.4
			c0,0-0.7-19-20.4-19S170,92.8,170,92.8s0.1,5,1,7.1H58.2c0.5-2.4,0.9-4.9,1.1-7.4c0-2.5-2.1-20.1-20.1-20.1s-21,20.1-21,20.1
			c-0.3,2.5-0.3,5,0.1,7.4c0,0-17.3-3.1-17.3-18.4c0-7.2,4.5-9.4,4.5-9.4l0.2-9c0.3-2.9,1.5-5.6,3.5-7.7L28.4,35
			c0,0,25.3-2.3,30.2-2.7c2.3-0.2,17.8-1.4,31.8-1.7c6.9-0.1,13.8,0.2,20.7,0.9c9.1,1.1,18.1,3.2,26.7,6.4
			C148.9,42.3,170,55.9,170,55.9z"/>
		<path class="st6" d="M56.9,36.6c0,0,0.8,6.3,0.8,8.3s-0.5,10-0.5,10"/>
		<path class="st11" d="M88.6,35.1c0,0,3.8,5.6,3.6,20.1h11c0,0-2.6-12.4-5.9-20.1H88.6z"/>
		<circle class="st12" cx="39.2" cy="92.6" r="19.3"/>
		<path class="st7" d="M39.2,74.8c9.8,0,17.8,8,17.8,17.8s-8,17.8-17.8,17.8s-17.8-8-17.8-17.8S29.4,74.8,39.2,74.8L39.2,74.8
			 M39.2,71.8c-11.5,0-20.8,9.3-20.8,20.8s9.3,20.8,20.8,20.8S60,104.1,60,92.6C60,81.2,50.7,71.8,39.2,71.8z"/>
		<circle class="st13" cx="39.2" cy="92.6" r="12.4"/>
		<circle class="st14" cx="39.2" cy="92.6" r="5"/>
		<circle class="st12" cx="190.1" cy="92.6" r="19.3"/>
		<path class="st7" d="M190.1,74.8c9.8,0,17.8,8,17.8,17.8s-8,17.8-17.8,17.8s-17.8-8-17.8-17.8S180.3,74.8,190.1,74.8L190.1,74.8
			 M190.1,71.8c-11.5,0-20.8,9.3-20.8,20.8s9.3,20.8,20.8,20.8s20.8-9.3,20.8-20.8C210.9,81.2,201.6,71.9,190.1,71.8z"/>
		<circle class="st13" cx="190.1" cy="92.6" r="12.4"/>
		<circle class="st14" cx="190.1" cy="92.6" r="5"/>
		<path class="st5" d="M67.5,70.4c0-0.5-0.1-1-0.5-1.3l-0.8,0.7c0.2,0.2,0.2,0.4,0.2,0.7c0,0.6-0.5,1.1-1.1,1.1l0,0
			c-0.6,0-1.1-0.5-1.1-1.1c0-0.1,0-0.2,0.1-0.4l-0.8-0.7c-0.2,0.3-0.3,0.6-0.2,1c0.1,1.2,1.1,2.1,2.3,2
			C66.5,72.3,67.4,71.5,67.5,70.4L67.5,70.4z"/>
		<path class="st15" d="M68.6,67.8v-0.4l-3.2,2.7v-0.4l3.2-2.7v-0.4l-1.8-1.2c0.1,0.3,0,0.5-0.1,0.8c-0.2,0.4-0.5,0.7-0.9,0.9
			c-0.1,0.1-0.3,0.2-0.3,0.4c0,0.1,0,0.2,0,0.3c0.2,0,0.4,0.2,0.4,0.5s-0.2,0.5-0.5,0.5s-0.5-0.2-0.5-0.5c0-0.2,0.2-0.4,0.4-0.5
			c-0.1-0.2-0.1-0.4-0.1-0.5c0.1-0.4,0.3-0.7,0.5-0.9c0.6-0.3,0.8-1,0.6-1.6c0.1,0,0.2,0.1,0.3,0.2c0.1,0,0.1,0.1,0.1,0.2
			c0.1-0.2,0.1-0.4,0-0.6c0-0.2-0.2-0.4-0.3-0.5c-0.1-0.1-0.2-0.2-0.4-0.2c0.1,0.2,0.1,0.3,0.1,0.5c0,0.3-0.1,0.5-0.3,0.7
			c-0.2,0.2-0.5,0.5-0.7,0.8c-0.2,0.2-0.3,0.5-0.3,0.7s0,0.4,0.1,0.7c-0.2-0.1-0.3-0.2-0.4-0.4c-0.1-0.2-0.2-0.5-0.2-0.7
			c0-0.4,0.1-0.7,0.3-1c0.3-0.3,0.5-0.6,0.7-0.9c0.1-0.2,0.1-0.4,0.1-0.6c0-0.1,0-0.2-0.1-0.3c0.1,0,0.2,0.1,0.2,0.1l0.1,0.1
			c0-0.2,0-0.3,0-0.5c0-0.3-0.2-0.5-0.4-0.7c-0.1-0.1-0.3-0.2-0.4-0.2c0.1,0.1,0.2,0.3,0.2,0.4c0,0.2,0,0.4-0.1,0.6
			c-0.2,0.3-0.4,0.5-0.6,0.7c-0.2,0.2-0.4,0.5-0.6,0.8c-0.2,0.3-0.2,0.7-0.1,1.1c0,0.3,0.2,0.5,0.3,0.7c-0.2-0.1-0.3-0.2-0.4-0.3
			c-0.1-0.1-0.2-0.2-0.2-0.3l-1.2,0.8v1.2l3.2,2.7l0.9-0.8l0.8-0.7L68.6,67.8L68.6,67.8z"/>
		<polygon class="st5" points="86.1,69.6 86.1,68.8 87.5,68.8 87.5,68 86.1,68 86.1,67.2 87.6,67.2 87.6,66.5 85,66.5 85,70.4 
			87.6,70.4 87.6,69.6 		"/>
		<polygon class="st5" points="82.6,66.5 81.6,66.5 81.6,70.4 82.6,70.4 		"/>
		<polygon class="st5" points="72.1,69.6 70.7,69.6 70.7,66.5 69.6,66.5 69.6,70.4 72.1,70.4 		"/>
		<polygon class="st5" points="77.7,70.4 78.7,70.4 78.7,67.3 79.7,67.3 79.7,66.5 76.8,66.5 76.8,67.3 77.7,67.3 		"/>
		<polygon class="st5" points="74.8,66.5 73.8,66.5 73.8,70.4 74.8,70.4 		"/>
		<path class="st5" d="M59.8,66.5h-1.2v3.9h1v-0.9h0.3c0.8,0.1,1.6-0.5,1.7-1.3c0-0.1,0-0.1,0-0.2C61.5,67.1,61,66.5,59.8,66.5
			L59.8,66.5z M59.8,68.7h-0.3v-1.5h0.3c0.4,0,0.7,0.4,0.7,0.7C60.5,68.4,60.2,68.7,59.8,68.7z"/>
		<path class="st4" d="M93.6,5.6c-1.2,0-2.2,1-2.2,2.2s1,2.2,2.2,2.2s2.2-1,2.2-2.2C95.8,6.6,94.8,5.6,93.6,5.6L93.6,5.6z"/>
	</g>
</g>
</svg>
