<?xml version="1.0" encoding="utf-8"?>
<!-- Generator: Adobe Illustrator 22.0.1, SVG Export Plug-In . SVG Version: 6.00 Build 0)  -->
<svg version="1.1" id="Layer_1" xmlns="http://www.w3.org/2000/svg" xmlns:xlink="http://www.w3.org/1999/xlink" x="0px" y="0px"
	 viewBox="0 0 4000 1024" style="enable-background:new 0 0 4000 1024;" xml:space="preserve">
<style type="text/css">
	.st0{display:none;}
	.st1{display:inline;fill:#82F9F9;}
	.st2{fill:#B5B9BA;}
	.st3{opacity:0.4;}
	.st4{fill:#FFFFFF;}
	.st5{fill:#0968A7;stroke:#1D1D1D;stroke-width:4;stroke-miterlimit:10;}
	.st6{fill:none;stroke:#1D1D1D;stroke-width:4;stroke-linecap:round;stroke-miterlimit:10;}
	.st7{fill:#485253;}
	.st8{fill:#465761;}
	.st9{fill:#EFB96A;stroke:#485253;stroke-width:2;stroke-linecap:round;stroke-linejoin:round;stroke-miterlimit:10;}
	.st10{fill:#757888;stroke:#485253;stroke-linecap:round;stroke-linejoin:round;stroke-miterlimit:10;}
	.st11{fill:#2C3E50;}
	.st12{fill:#F0F1F1;stroke:#485253;stroke-width:2;stroke-linecap:round;stroke-linejoin:round;stroke-miterlimit:10;}
	.st13{fill:none;stroke:#485253;stroke-width:2;stroke-linecap:round;stroke-linejoin:round;stroke-miterlimit:10;}
	.st14{fill:none;stroke:#485253;stroke-width:4;stroke-linecap:round;stroke-linejoin:round;stroke-miterlimit:10;}
	.st15{fill:none;stroke:#485253;stroke-width:3;stroke-linecap:round;stroke-linejoin:round;stroke-miterlimit:10;}
	.st16{fill:#2C3E50;stroke:#485253;stroke-width:2;stroke-linecap:round;stroke-linejoin:round;stroke-miterlimit:10;}
	.st17{fill:#F1C40F;}
	.st18{fill:#C7CAD2;stroke:#485253;stroke-width:0.5;stroke-linecap:round;stroke-linejoin:round;stroke-miterlimit:10;}
	.st19{fill:#1AC5E3;stroke:#485253;stroke-width:2;stroke-linecap:round;stroke-linejoin:round;stroke-miterlimit:10;}
	.st20{fill:#A7B4B5;stroke:#485253;stroke-width:2;stroke-linecap:round;stroke-linejoin:round;stroke-miterlimit:10;}
	.st21{fill:#C0392B;stroke:#485253;stroke-width:2;stroke-linecap:round;stroke-linejoin:round;stroke-miterlimit:10;}
	.st22{fill:#F1C40F;stroke:#485253;stroke-width:2;stroke-linecap:round;stroke-linejoin:round;stroke-miterlimit:10;}
	.st23{fill:#757888;stroke:#485253;stroke-width:3;stroke-linecap:round;stroke-linejoin:round;stroke-miterlimit:10;}
	.st24{fill:#C7CAD2;stroke:#485253;stroke-width:1.5;stroke-linecap:round;stroke-linejoin:round;stroke-miterlimit:10;}
	.st25{fill:#C7CAD2;stroke:#485253;stroke-linecap:round;stroke-linejoin:round;stroke-miterlimit:10;}
	.st26{fill:#A7B4B5;}
	.st27{fill:#CCDDDD;}
	.st28{fill:#57E38E;}
	.st29{fill:#F0F1F1;}
	.st30{fill:#B5B9BA;stroke:#485253;stroke-width:2;stroke-linecap:round;stroke-linejoin:round;stroke-miterlimit:10;}
	.st31{fill:#2C3E50;stroke:#485253;stroke-linecap:round;stroke-linejoin:round;stroke-miterlimit:10;}
	.st32{display:inline;}
	.st33{fill:#485253;stroke:#485253;stroke-miterlimit:10;}
	.st34{clip-path:url(#SVGID_3_);fill:#C0392B;}
	.st35{clip-path:url(#SVGID_5_);fill:#8E44AD;}
	.st36{clip-path:url(#SVGID_7_);fill:#C0392B;}
	.st37{clip-path:url(#SVGID_9_);fill:#8E44AD;}
	.st38{clip-path:url(#SVGID_11_);fill:#C0392B;}
	.st39{clip-path:url(#SVGID_13_);fill:#8E44AD;}
	.st40{clip-path:url(#SVGID_15_);fill:#C0392B;}
	.st41{clip-path:url(#SVGID_17_);fill:#8E44AD;}
	.st42{clip-path:url(#SVGID_19_);fill:#C0392B;}
	.st43{clip-path:url(#SVGID_21_);fill:#8E44AD;}
	.st44{fill:#8E44AD;}
	.st45{fill:#CD9C12;}
	.st46{fill:#C0392B;}
	.st47{fill:#FFFFFF;stroke:#FFFFFF;stroke-miterlimit:10;}
	.st48{fill:#FFFFFF;stroke:#FFFFFF;stroke-width:2;stroke-linecap:round;stroke-linejoin:round;stroke-miterlimit:10;}
	.st49{fill:#FFFFFF;stroke:#FFFFFF;stroke-linecap:round;stroke-linejoin:round;stroke-miterlimit:10;}
	.st50{fill:#FFFFFF;stroke:#FFFFFF;stroke-width:4;stroke-linecap:round;stroke-linejoin:round;stroke-miterlimit:10;}
	.st51{fill:#FFFFFF;stroke:#FFFFFF;stroke-width:3;stroke-linecap:round;stroke-linejoin:round;stroke-miterlimit:10;}
	.st52{fill:#FFFFFF;stroke:#FFFFFF;stroke-width:0.5;stroke-linecap:round;stroke-linejoin:round;stroke-miterlimit:10;}
	.st53{fill:#FFFFFF;stroke:#FFFFFF;stroke-width:1.5;stroke-linecap:round;stroke-linejoin:round;stroke-miterlimit:10;}
	.st54{fill:#FFFFFF;stroke:#FFFFFF;stroke-width:4;stroke-miterlimit:10;}
	.st55{fill:#FFFFFF;stroke:#FFFFFF;stroke-width:4;stroke-linecap:round;stroke-miterlimit:10;}
</style>
<g id="bg_lucht" class="st0">
	<rect y="0" class="st1" width="4000" height="803"/>
</g>
<g id="huizen">
</g>
<g id="bosjes">
</g>
<g id="weg">
	<rect y="924" class="st2" width="4000" height="100"/>
</g>
<g id="weg_1_" class="st3">
	<rect y="924" class="st4" width="4000" height="100"/>
</g>
<g id="borden">
	<g>
		<path class="st5" d="M1628.4,890.2v25.6c0,0.9-0.3,1.7-1,2.3c-0.6,0.6-1.5,1-2.3,1h-23.4c-0.9,0-1.7-0.3-2.3-1
			c-0.6-0.6-1-1.5-1-2.3v-25.6c0-0.9,0.3-1.7,1-2.3c0.6-0.6,1.5-1,2.3-1h23.4c0.9,0,1.7,0.3,2.3,1
			C1628,888.5,1628.4,889.3,1628.4,890.2z"/>
		<g>
			<path class="st4" d="M1614.9,893.3c3.4,0,6.1,2.7,6.1,6.1c0,3.4-2.7,6.1-6.1,6.1c2.4,0,3.2-2.7,3.2-6.1
				S1617.3,893.3,1614.9,893.3z"/>
			<path class="st4" d="M1614.9,893.3c2.4,0,4.3,2.7,4.3,6.1c0,3.4-1.9,6.1-4.3,6.1h-5v6.2h-3.5v-18.4L1614.9,893.3L1614.9,893.3z
				 M1617.5,899.4c0-1.4-1.2-2.6-2.6-2.6h-5v5.2h5C1616.3,902,1617.5,900.8,1617.5,899.4z"/>
		</g>
		<line class="st6" x1="1613.7" y1="959.6" x2="1613.7" y2="914.8"/>
	</g>
	<g>
		<path class="st5" d="M3061.4,890.2v25.6c0,0.9-0.3,1.7-1,2.3s-1.5,1-2.3,1h-23.4c-0.9,0-1.7-0.3-2.3-1c-0.6-0.6-1-1.5-1-2.3v-25.6
			c0-0.9,0.3-1.7,1-2.3c0.6-0.6,1.5-1,2.3-1h23.4c0.9,0,1.7,0.3,2.3,1S3061.4,889.3,3061.4,890.2z"/>
		<g>
			<path class="st4" d="M3047.9,893.3c3.4,0,6.1,2.7,6.1,6.1c0,3.4-2.7,6.1-6.1,6.1c2.4,0,3.2-2.7,3.2-6.1
				C3051.1,896,3050.3,893.3,3047.9,893.3z"/>
			<path class="st4" d="M3047.9,893.3c2.4,0,4.3,2.7,4.3,6.1c0,3.4-1.9,6.1-4.3,6.1h-5v6.2h-3.5v-18.4L3047.9,893.3L3047.9,893.3z
				 M3050.5,899.4c0-1.4-1.2-2.6-2.6-2.6h-5v5.2h5C3049.3,902,3050.5,900.8,3050.5,899.4z"/>
		</g>
		<line class="st6" x1="3046.7" y1="959.6" x2="3046.7" y2="914.8"/>
	</g>
</g>
<g id="personen">
</g>
<g id="auto_x27_s">
	<g>
		<polygon class="st7" points="2869.8,960.9 2973.5,960.9 2973.3,966 2904.1,966 2898.2,968.3 2875.6,968.3 2873.9,966.6 
			2869.9,966.6 		"/>
		<g>
			<path class="st8" d="M2991.3,975.1c-8.7,0-15.8-7.1-15.8-15.8s7.1-15.8,15.8-15.8s15.8,7.1,15.8,15.8S3000.1,975.1,2991.3,975.1z
				"/>
			<path class="st7" d="M2991.3,945c7.9,0,14.3,6.4,14.3,14.3s-6.4,14.3-14.3,14.3c-7.9,0-14.3-6.4-14.3-14.3S2983.4,945,2991.3,945
				 M2991.3,942c-9.5,0-17.3,7.8-17.3,17.3s7.8,17.3,17.3,17.3s17.3-7.8,17.3-17.3S3000.9,942,2991.3,942L2991.3,942z"/>
		</g>
		<g>
			<path class="st8" d="M2852.4,975.1c-8.7,0-15.8-7.1-15.8-15.8s7.1-15.8,15.8-15.8s15.8,7.1,15.8,15.8S2861.2,975.1,2852.4,975.1z
				"/>
			<path class="st7" d="M2852.4,945c7.9,0,14.3,6.4,14.3,14.3s-6.4,14.3-14.3,14.3s-14.3-6.4-14.3-14.3S2844.5,945,2852.4,945
				 M2852.4,942c-9.5,0-17.3,7.8-17.3,17.3s7.8,17.3,17.3,17.3s17.3-7.8,17.3-17.3S2862,942,2852.4,942L2852.4,942z"/>
		</g>
		<path class="st9" d="M2833.5,962.9h-3.9c0,0-10.4-10.8-10.4-17.9c0-7.1,0-15.5,0-15.5l30-26.7c0,0,3.5-3.4,6.7-3.4s78.1,0,78.1,0
			s7.6-0.2,13,5.2l22.9,19.1l53,11.6c0,0,5.8,1.3,4.5,7.2l-3.1,12.7c0,0-2,8.8-8.6,8.8h-6.1c0-8.7-3-13.2-3-13.2s-4.3-7.7-15.1-7.7
			c-11.3,0-15.1,7.7-15.1,7.7s-2.9,4.5-2.9,15.2h-13.3h-56l-5.8,2.4h-22.6l-1.7-1.7h-4V964c0-8.7-2.5-13.2-2.5-13.2s-3.8-7.7-15-7.7
			C2835.7,943,2833.5,962.9,2833.5,962.9z"/>
		<circle class="st10" cx="2852.4" cy="959.3" r="10"/>
		<circle class="st10" cx="2991.3" cy="959.3" r="10"/>
		<g>
			<path class="st11" d="M2839.6,932.4c-2.1,0-3.9-1.7-3.9-3.9s1.7-3.9,3.9-3.9s3.9,1.7,3.9,3.9S2841.7,932.4,2839.6,932.4z"/>
			<path class="st7" d="M2839.6,925.6c1.6,0,2.9,1.3,2.9,2.9c0,1.6-1.3,2.9-2.9,2.9s-2.9-1.3-2.9-2.9
				C2836.7,926.9,2838,925.6,2839.6,925.6 M2839.6,923.6c-2.7,0-4.9,2.2-4.9,4.9s2.2,4.9,4.9,4.9s4.9-2.2,4.9-4.9
				C2844.4,925.8,2842.3,923.6,2839.6,923.6L2839.6,923.6z"/>
		</g>
		<path class="st12" d="M2868.3,905.1h18.6c0,0,3.5,0,3.5,3.5c0,3.9,0,14.3,0,14.3s-0.2,3.3-3.3,3.3s-31.2,0-31.2,0s-5.3,0-5.3-5
			c0-2.9,13.7-15.2,13.7-15.2S2865,905.1,2868.3,905.1z"/>
		<g>
			<rect x="2902.3" y="930.7" class="st7" width="11.4" height="2.5"/>
		</g>
		<path class="st12" d="M2905.5,905h30.1c0,0,1.9,0,2.9,0.9l19.8,17.7c0,0,3.1,2.6-2.3,2.5h-52.3c0,0-2.9,0-2.9-3.3v-14.3
			C2900.8,905.1,2905.5,905,2905.5,905z"/>
		<line class="st13" x1="2819.2" y1="936.2" x2="3024.4" y2="936.2"/>
		<line class="st13" x1="2895.4" y1="899.4" x2="2895.4" y2="968.3"/>
		<line class="st14" x1="2868.5" y1="952.8" x2="2975" y2="952.8"/>
		<line class="st15" x1="2869.8" y1="960.9" x2="2973.5" y2="960.9"/>
		<polyline class="st13" points="2958.9,924.4 2967.2,936.2 2967.2,965.9 		"/>
		<line class="st13" x1="3006.9" y1="951.5" x2="3025.1" y2="951.5"/>
		<line class="st13" x1="2837.3" y1="951.8" x2="2821.4" y2="951.8"/>
		<path class="st16" d="M2826.3,951.8l2.5,5.7c0,0,1,1.6-2.2,1.6s-7.9,0-7.9,0v-7.4h7.6V951.8z"/>
		<path class="st16" d="M3020.2,951.5l-2.3,5.7c0,0-1,1.6,2.1,1.6s10,0,10,0v-7.4h-9.8V951.5z"/>
		<g>
			<path class="st17" d="M3013.7,945c-0.6,0-1-0.4-1-1v-1.6c0-0.6,0.4-1,1-1h5.7c0.6,0,1,0.4,1,1v1.6c0,0.6-0.4,1-1,1H3013.7z"/>
			<path class="st7" d="M3019.4,942.3v1.6h-5.7v-1.6H3019.4 M3019.4,940.3h-5.7c-1.1,0-2,0.9-2,2v1.6c0,1.1,0.9,2,2,2h5.7
				c1.1,0,2-0.9,2-2v-1.6C3021.4,941.2,3020.5,940.3,3019.4,940.3L3019.4,940.3z"/>
		</g>
		<g>
			<path class="st17" d="M2821.3,946.5c-0.6,0-1-0.4-1-1v-8.2c0-0.6,0.4-1,1-1h4.1c0.6,0,1,0.4,1,1v8.2c0,0.6-0.4,1-1,1H2821.3z"/>
			<path class="st7" d="M2825.4,937.3v8.2h-4.1v-8.2H2825.4 M2825.4,935.3h-4.1c-1.1,0-2,0.9-2,2v8.2c0,1.1,0.9,2,2,2h4.1
				c1.1,0,2-0.9,2-2v-8.2C2827.4,936.2,2826.5,935.3,2825.4,935.3L2825.4,935.3z"/>
		</g>
		<line class="st13" x1="2940.8" y1="908.1" x2="2940.8" y2="920.6"/>
		<g>
			<path class="st11" d="M2936.6,929.8c-0.8,0-1.7,0-2.2-0.8c-0.3-0.6-0.3-1.2-0.3-2.7V923c0.1-2.3,0.1-3.3,2.5-3.3h5.2
				c2.5,0,2.5,1,2.5,3.3v3.2c0,1.6,0,2.2-0.3,2.8c-0.5,0.8-1.3,0.8-2.1,0.8H2936.6z"/>
			<path class="st7" d="M2941.8,920.6c1.5,0,1.5,0,1.5,2.3v3.2c0,2.6,0,2.6-1.5,2.6h-5.2c-1.5,0-1.5-0.1-1.5-2.6v-3.2
				c0.1-2.3,0.1-2.3,1.5-2.3C2936.6,920.6,2940.3,920.6,2941.8,920.6 M2941.8,918.6h-5.2c-3.4,0-3.5,2-3.5,4.3c0,0,0,0,0,0.1v3.2
				v0.1c0,1.6,0,2.4,0.5,3.2c0.8,1.3,2.1,1.3,3.1,1.3h5.2c0.9,0,2.3,0,3-1.3c0.4-0.8,0.4-1.6,0.4-3.2v-0.1V923
				C2945.3,920.7,2945.3,918.6,2941.8,918.6L2941.8,918.6z"/>
		</g>
		<circle class="st18" cx="2852.4" cy="959.3" r="4"/>
		<circle class="st18" cx="2991.3" cy="959.3" r="4"/>
	</g>
	<g>
		<line class="st13" x1="1833.2" y1="920.7" x2="1833.2" y2="928.1"/>
		<path class="st19" d="M1907.5,859.9h121.6c0,0,3.3-0.3,3.3,4.6v2.2l10.1,25.8h4.2l0,0c1.1,0,2,0.9,2,2v8.3c0,1.2-0.9,2.1-2.1,2.1
			l0,0v16.4h7.1c0,0,2.2-0.2,2.2,2.2v5.3l-5.2,5.2h-15.2l-2.4-5.7h-51.5l-3,4.6h2.8c0.7,0,1.2,0.8,0.9,1.4l-4.8,9.8h-86.3l-6.9-15.8
			H1833V942h-11l-5.9-7.1v-11.3c0,0-0.1-2.7,2.7-2.7h3v-13.3l16.5-8.4l47.2-8.7l16.3-26.9C1902,863.5,1903.9,859.9,1907.5,859.9z"/>
		<rect x="1944.9" y="866.6" class="st16" width="10.5" height="28"/>
		<line class="st13" x1="1893.6" y1="949" x2="1878.2" y2="913.4"/>
		<polyline class="st13" points="2039.4,942.6 2025.9,910.2 1988.3,910.2 		"/>
		<path class="st20" d="M2033.3,928.1l-2.9-6.9h16.3h7.1c0,0,2.2-0.2,2.2,2.2v5.3l-5.2,5.2h-15.2L2033.3,928.1z"/>
		<path class="st21" d="M2042.6,892.4h-3.8c0,0-5.2-0.2-5.2,6.3c0,6.3,5.2,6,5.2,6h7.9c1.4,0,2.1-0.7,2.1-2.1v-7.8
			c0-1.4-1.1-2.5-2.5-2.5L2042.6,892.4L2042.6,892.4z"/>
		<path class="st16" d="M2032.5,866.6H2007c0,0-4.6,0-4.6,5.7c0,4.9,5.2,14.6,9.9,14.6h28.1L2032.5,866.6z"/>
		<line class="st13" x1="1933.9" y1="903.5" x2="1946.9" y2="903.5"/>
		<line class="st13" x1="1988.3" y1="892.4" x2="2001.2" y2="892.4"/>
		<g>
			<path class="st11" d="M2015.9,905.8c-3.1,0-5.6-2.5-5.6-5.6V897c0-3.1,2.5-5.6,5.6-5.6h5.7c3.1,0,5.6,2.5,5.6,5.6v3.2
				c0,3.1-2.5,5.6-5.6,5.6H2015.9z"/>
			<path class="st7" d="M2021.7,892.4c2.5,0,4.6,2.1,4.6,4.6v3.2c0,2.5-2.1,4.6-4.6,4.6h-5.7c-2.5,0-4.6-2.1-4.6-4.6V897
				c0-2.5,2.1-4.6,4.6-4.6H2021.7 M2021.7,890.4h-5.7c-3.6,0-6.6,3-6.6,6.6v3.2c0,3.6,3,6.6,6.6,6.6h5.7c3.6,0,6.6-3,6.6-6.6V897
				C2028.3,893.4,2025.3,890.4,2021.7,890.4L2021.7,890.4z"/>
		</g>
		<line class="st13" x1="2039.4" y1="910.2" x2="2025.9" y2="910.2"/>
		<polyline class="st13" points="1993.5,910.2 1978.7,932.7 1886.6,932.7 		"/>
		<line class="st13" x1="1892.2" y1="932.7" x2="1892.2" y2="900.3"/>
		<path class="st13" d="M1858.2,903c0.2,0,15.7,0,15.7,0l8-3.1"/>
		<line class="st13" x1="1833.2" y1="920.7" x2="1822" y2="920.7"/>
		<path class="st16" d="M1833.2,928.1h51.3l-6.4-14.7h6.6h-42.6c-0.2,0-0.4,0.1-0.6,0.2l-8.4,7.1L1833.2,928.1"/>
		<polygon class="st16" points="2033.3,928.1 1981.8,928.1 1993.5,910.2 2025.9,910.2 		"/>
		<line class="st13" x1="1952.9" y1="932.7" x2="1952.9" y2="904.5"/>
		<line class="st13" x1="1900.1" y1="866.6" x2="1994.8" y2="866.6"/>
		<path class="st13" d="M1907.3,866.6c0,3.7-10,28-10,28"/>
		<path class="st13" d="M1885.7,890.4c0,0,2.1,3.4,6,4.1c1.7,0.3,5.6,0.2,5.6,0.2h77.1c0,0,7,0,7-5.9v-16c0,0,0.2-6.1-5.6-6.1"/>
		<path class="st13" d="M1970.3,922.8c0,0,11-16.5,11-34.1"/>
		<path class="st20" d="M1978.7,932.7h-92.2l4.9,11.2h88.3l4.8-9.8c0.3-0.7-0.2-1.4-0.9-1.4H1978.7z"/>
		<path class="st12" d="M1944.9,894.6h-47.6c0,0,10-24.2,10-28l0,0h37.6V894.6z"/>
		<path class="st20" d="M1974.4,894.6h-19v-28h20.4c5.9,0,5.6,6.1,5.6,6.1v16C1981.3,894.6,1974.4,894.6,1974.4,894.6z"/>
		<path class="st22" d="M1819.7,907.4h8.5c1.4,0,2.5,1.1,2.5,2.5v2.5c0,1.4-1.1,2.5-2.5,2.5h-8.5c-0.8,0-1.5-0.7-1.5-1.5v-4.5
			C1818.2,908.1,1818.9,907.4,1819.7,907.4z"/>
		<g>
			<g>
				<circle class="st8" cx="2010.1" cy="948.7" r="26.5"/>
				<path class="st7" d="M2010.1,923.7c13.8,0,25,11.2,25,25s-11.2,25-25,25s-25-11.2-25-25S1996.3,923.7,2010.1,923.7
					 M2010.1,920.7c-15.4,0-28,12.6-28,28s12.6,28,28,28s28-12.6,28-28S2025.5,920.7,2010.1,920.7L2010.1,920.7z"/>
			</g>
			<circle class="st23" cx="2010.1" cy="948.7" r="17.5"/>
			<circle class="st24" cx="2010.1" cy="948.7" r="7"/>
		</g>
		<g>
			<g>
				<circle class="st8" cx="1861.6" cy="948.7" r="26.5"/>
				<path class="st7" d="M1861.6,923.7c13.8,0,25,11.2,25,25s-11.2,25-25,25s-25-11.2-25-25S1847.8,923.7,1861.6,923.7
					 M1861.6,920.7c-15.4,0-28,12.6-28,28s12.6,28,28,28s28-12.6,28-28S1877,920.7,1861.6,920.7L1861.6,920.7z"/>
			</g>
			<circle class="st23" cx="1861.6" cy="948.7" r="17.5"/>
			<circle class="st24" cx="1861.6" cy="948.7" r="7"/>
		</g>
		<path class="st20" d="M1911.3,880.9h3.4c0.8,0,1.5,0.7,1.5,1.5v17.1c0,0.8-0.7,1.5-1.5,1.5h-3.4c-2.2,0-4-1.8-4-4v-12.2
			C1907.3,882.7,1909.1,880.9,1911.3,880.9z"/>
		<path class="st20" d="M1822,920.7h11.2v7.4v13.7h-11l-5.9-7.1v-11.3c0,0-0.1-2.7,2.7-2.7L1822,920.7L1822,920.7z"/>
	</g>
	<g>
		<g>
			<path class="st8" d="M1658.9,975.1c-8.7,0-15.8-7.1-15.8-15.8s7.1-15.8,15.8-15.8s15.8,7.1,15.8,15.8S1667.6,975.1,1658.9,975.1z
				"/>
			<path class="st7" d="M1658.9,945c7.9,0,14.3,6.4,14.3,14.3s-6.4,14.3-14.3,14.3s-14.3-6.4-14.3-14.3S1651,945,1658.9,945
				 M1658.9,942c-9.5,0-17.3,7.8-17.3,17.3s7.8,17.3,17.3,17.3s17.3-7.8,17.3-17.3S1668.5,942,1658.9,942L1658.9,942z"/>
		</g>
		<g>
			<path class="st8" d="M1762.2,975.1c-8.7,0-15.8-7.1-15.8-15.8s7.1-15.8,15.8-15.8s15.8,7.1,15.8,15.8S1771,975.1,1762.2,975.1z"
				/>
			<path class="st7" d="M1762.2,945c7.9,0,14.3,6.4,14.3,14.3s-6.4,14.3-14.3,14.3s-14.3-6.4-14.3-14.3S1754.3,945,1762.2,945
				 M1762.2,942c-9.5,0-17.3,7.8-17.3,17.3s7.8,17.3,17.3,17.3s17.3-7.8,17.3-17.3S1771.8,942,1762.2,942L1762.2,942z"/>
		</g>
		<circle class="st10" cx="1762.2" cy="959.3" r="12.5"/>
		<circle class="st10" cx="1658.9" cy="959.3" r="12.5"/>
		<circle class="st25" cx="1762.2" cy="959.3" r="6.5"/>
		<circle class="st25" cx="1658.9" cy="959.3" r="6.5"/>
		<path class="st26" d="M1732,956.4l12.5,0.1c-0.8,3.6-1,7.7-1,8.4c0,3-1.6,3-1.6,3s-61,0-62.8,0c-1.5,0-1.4-3-1.4-3s0-2.2-0.4-5
			c1.5-0.1,3.6-0.2,4.9-0.3c0.4,0.7,0.7,1,1.1,1.3c3.3,2.5,9.2,1.7,9.2,1.7s33.6-3.9,35.9-4.1C1729.5,958.4,1730.9,957.4,1732,956.4
			z"/>
		<path class="st27" d="M1775.1,917.8c0.3,2,0.3,4,0.3,4v14.5c3.5,0,4.7,0.9,4.7,0.9c4.5,10.8,1.2,24,1.2,24s-1-18.7-19.4-18.7
			c-10.3,0-15.3,8-17.2,14l-12.5-0.1c1.4-1.2,2.2-2.4,2.2-2.4s27.1-33.1,28.5-34.6c1.3-1.6,3.9-1.6,3.9-1.6L1775.1,917.8
			L1775.1,917.8z"/>
		<line class="st13" x1="1744.5" y1="956.5" x2="1732" y2="956.4"/>
		<path class="st27" d="M1657.3,925.6l90.4-10.6l-0.1,6.3c-0.9,6.8-13.8,23.7-13.8,23.7c-5.1,7.4-11.4,8.8-11.4,8.8l-21.8,3.8
			c0,0-8.3,1.4-23.2,2.3c-1.1-6.6-5.1-17.4-18.6-17.4c-19.7,0-19,22.4-19,22.4h-5.4l2.4-4v-10.2c0-2.8,2.6-4.1,2.6-4.1v-5.3
			c0-2.7,1.2-4.2,1.2-4.2l8.5-8.7C1651.1,926.4,1657.3,925.6,1657.3,925.6z"/>
		<path class="st28" d="M1682.1,959.6c0,0,0.1,0.5,1.2,1.3c3.3,2.5,9.2,1.7,9.2,1.7s33.6-3.9,35.9-4.1c2.4-0.3,5.8-4.5,5.8-4.5
			l30-36.2l-14.4-24.2h-40.7c0,0-6.6,0.7-11.2,4.1l-40.6,27.8l11.7-1.4c0,0,23.2-17,31.7-21.9c8.5-5,17.9-5,17.9-5h14.7
			c0,0,9.6,0,11.5,5.4c1.8,5.3,3.8,11.8,2.9,18.6s-13.8,23.7-13.8,23.7c-5.1,7.4-11.4,8.8-11.4,8.8l-21.8,3.8
			C1700.5,957.7,1694.1,958.8,1682.1,959.6L1682.1,959.6z"/>
		<path class="st11" d="M1775.4,921.8c0,0,0-5-1.1-7.3c-1.1-2.4-9.5-16.7-9.5-16.7l1.4-2.7c0,0,0.4-1.3-1.4-1.3s-15,0-15,0
			l14.5,24.5l2.2-0.4h8.6"/>
		<path class="st13" d="M1634.3,964.9h5.4c0,0-0.7-22.4,19-22.4s19,22.4,19,22.4s-0.1,3,1.4,3c1.8,0,62.8,0,62.8,0s1.6,0,1.6-3
			c0-2.1-0.1-22.4,18.3-22.4s19.4,18.7,19.4,18.7s3.3-13.2-1.2-24c0,0-1.2-0.9-4.7-0.9v-14.5c0,0,0-5-1.1-7.3
			c-1.1-2.4-9.5-16.7-9.5-16.7l1.4-2.7c0,0,0.4-1.3-1.4-1.3s-55.7,0-55.7,0s-4.7,0-11.2,4.1l-40.6,27.8c0,0-6.2,0.7-8.2,2.8
			l-8.5,8.7c0,0-1.2,1.5-1.2,4.2v5.3c0,0-2.6,1.3-2.6,4.1V961L1634.3,964.9z"/>
		<path class="st13" d="M1775.1,917.8h-8.6c0,0-2.6,0-3.9,1.6s-28.5,34.6-28.5,34.6s-3.4,4.2-5.8,4.5s-35.9,4.1-35.9,4.1
			s-5.9,0.8-9.2-1.7c-3.3-2.5-5.7-18.2-5.7-18.2s-1.2-10,0-24.7"/>
		<g>
			<polygon class="st11" points="1680.2,916.1 1682.6,922.7 1668.9,924.3 			"/>
		</g>
		<line class="st13" x1="1764.4" y1="918.2" x2="1749.8" y2="893.7"/>
		<path class="st29" d="M1687.3,921.4v-6.9l-3.7-0.4c0,0,8.5-7.2,17-12.1c8.5-5,17.9-5,17.9-5h14.7c0,0,9.6,0,11.5,5.4
			c1.8,5.3,3.2,12.3,3.2,12.3L1687.3,921.4z"/>
		<line class="st13" x1="1732.6" y1="897.4" x2="1731.5" y2="916.7"/>
		<line class="st13" x1="1735.6" y1="916.5" x2="1657.3" y2="925.6"/>
		<line class="st13" x1="1677.2" y1="937.9" x2="1730" y2="931.2"/>
		<line class="st13" x1="1639.4" y1="946.7" x2="1646.8" y2="942.2"/>
		<line class="st13" x1="1782.4" y1="949" x2="1776.5" y2="949"/>
		<line class="st13" x1="1775.4" y1="936.3" x2="1768.5" y2="936.3"/>
		<g>
			<path class="st17" d="M1770.7,934.9c-1.3,0-3.4-1-3.4-3.7s2-3.7,3.4-3.7h3.1c0.6,0,1,0.4,1,1v5.4c0,0.6-0.4,1-1,1H1770.7z"/>
			<path class="st7" d="M1773.8,928.5v5.4h-3.1c0,0-2.4,0-2.4-2.7s2.4-2.7,2.4-2.7H1773.8 M1773.8,926.5h-3.1
				c-1.8,0-4.4,1.3-4.4,4.7s2.6,4.7,4.4,4.7h3.1c1.1,0,2-0.9,2-2v-5.4C1775.8,927.4,1774.9,926.5,1773.8,926.5L1773.8,926.5z"/>
		</g>
		<path class="st30" d="M1747.3,922.5h-6.3c0,0-5.2,0-5.2-5.1s5.2-5.1,5.2-5.1h6.3"/>
		<path class="st31" d="M1747.7,919.4h-4.2c0,0-3.2,0-3.2-1.7s3.2-1.7,3.2-1.7h4.2"/>
		<g>
			<path class="st17" d="M1770.7,926.6c-1.3,0-3.4-1-3.4-3.7s2-3.7,3.4-3.7h3.1c0.6,0,1,0.4,1,1v5.4c0,0.6-0.4,1-1,1H1770.7z"/>
			<path class="st7" d="M1773.8,920.2v5.4h-3.1c0,0-2.4,0-2.4-2.7s2.4-2.7,2.4-2.7H1773.8 M1773.8,918.2h-3.1
				c-1.8,0-4.4,1.3-4.4,4.7s2.6,4.7,4.4,4.7h3.1c1.1,0,2-0.9,2-2v-5.4C1775.8,919.1,1774.9,918.2,1773.8,918.2L1773.8,918.2z"/>
		</g>
		<g>
			<path class="st17" d="M1643.5,941c-0.9,0-1.5-0.4-1.7-0.7c-1.6-1.8,0.6-5.3,3.4-7.9c2.3-2.1,4.7-3.3,6.4-3.3
				c0.9,0,1.5,0.4,1.7,0.7c0.5,0.6,1,1.7-0.1,3.8c-0.7,1.3-1.8,2.8-3.2,4.1C1647.6,939.7,1645.2,941,1643.5,941L1643.5,941z"/>
			<path class="st7" d="M1651.5,930.1c0.4,0,0.8,0.1,1,0.4c0.9,1-0.5,3.9-3.3,6.4c-2.1,1.9-4.3,3.1-5.7,3.1c-0.4,0-0.8-0.1-1-0.4
				c-0.9-1,0.5-3.9,3.3-6.4C1647.9,931.3,1650.1,930.1,1651.5,930.1 M1651.5,928.1c-1.9,0-4.6,1.3-7,3.6c-1.5,1.4-2.7,2.9-3.5,4.4
				c-1.4,2.7-0.6,4.3,0.1,4.9c0.4,0.5,1.2,1,2.5,1c1.9,0,4.6-1.3,7-3.6c3.2-3,5.5-7,3.4-9.3C1653.6,928.7,1652.8,928.1,1651.5,928.1
				L1651.5,928.1z"/>
		</g>
		<line class="st13" x1="1641.1" y1="955.8" x2="1636.8" y2="955.8"/>
		<path class="st13" d="M1668.9,924.3c0,0,23.2-17,31.7-21.9c8.5-5,17.9-5,17.9-5h14.7c0,0,9.6,0,11.5,5.4
			c1.8,5.3,3.8,11.8,2.9,18.6s-13.8,23.7-13.8,23.7c-5.1,7.4-11.4,8.8-11.4,8.8l-21.8,3.8c0,0-8.3,1.4-23.2,2.3"/>
		<g>
			<path class="st17" d="M1683.4,922.7c-0.4,0-1.3-0.1-2.1-0.6c-0.8-0.5-1.7-1.6-1.7-3.7c0-3.5,2.5-4.4,3.9-4.4h3.9c0.6,0,1,0.4,1,1
				v6.8c0,0.6-0.4,1-1,1L1683.4,922.7v-1V922.7z"/>
			<path class="st7" d="M1683.4,914.9L1683.4,914.9h3.9v6.8h-3.9c0,0,0,0-0.1,0c-0.4,0-2.9-0.1-2.9-3.4
				C1680.5,915,1683,914.9,1683.4,914.9 M1683.4,912.9c-2.4,0-4.9,1.7-4.9,5.4s2.5,5.4,4.9,5.4h0.1h3.8c1.1,0,2-0.9,2-2v-6.8
				c0-1.1-0.9-2-2-2L1683.4,912.9L1683.4,912.9L1683.4,912.9z"/>
		</g>
		<line class="st13" x1="1687.6" y1="919.1" x2="1680.2" y2="919.1"/>
		<g>
			<path class="st11" d="M1687.3,919.4h-6.8c0,0,0.1,0.7,0.5,1.3c0.5,0.6,1.3,1.1,2.4,1.1h3.9V919.4z"/>
		</g>
	</g>
</g>
<g id="politie_auto" class="st0">
	<g class="st32">
		<path class="st33" d="M409,777.3c-0.7-0.5-1.5-0.7-2.3-0.5l-5.3,1.3c-0.4,0.1-0.6,0.5-0.5,0.9s0.5,0.6,0.9,0.5l5.3-1.3
			c0.4-0.1,0.7,0,1,0.2s0.5,0.6,0.5,0.9v12.8c0,0.4-0.2,0.7-0.5,0.9s-0.7,0.3-1,0.2l-8.1-2v-11.7v-2.9c0-2.6-2.1-4.7-4.7-4.7h-22.4
			c-2.6,0-4.7,2.1-4.7,4.7v18.1c0,2.6,2.1,4.7,4.7,4.7h0.1v2.6c0,1,1.5,0.3,2.5,0.3h16.8c1,0,1.1,0.7,1.1-0.3v-2.6h1.9
			c2.6,0,4.7-2.1,4.7-4.7v-2l7.8,1.9c0.2,0.1,0.4,0.1,0.7,0.1c0.6,0,1.2-0.2,1.7-0.6c0.7-0.5,1-1.3,1-2.1v-12.8
			C410,778.5,409.6,777.8,409,777.3z"/>
		<path class="st27" d="M397.4,794.8c0,1.8-1.5,3.2-3.3,3.2h-2.7h-12.6c-0.4,0-0.7,0.3-0.7,0.7s0.3,0.7,0.7,0.7h11.9v2.1
			c0,0.2-0.1,0.3-0.3,0.3h-16.8c-0.2,0-0.3-0.1-0.3-0.3v-2.1h1.6h0.6c0.4,0,0.7-0.3,0.7-0.7s-0.3-0.7-0.7-0.7h-0.6h-2.4h-0.8
			c-1.8,0-3.3-1.4-3.3-3.2v-18.1c0-1.8,1.5-3.2,3.3-3.2h22.4c1.8,0,3.3,1.4,3.3,3.2v2.9v12.3L397.4,794.8L397.4,794.8z"/>
		<g>
			<g>
				<path id="SVGID_1_" class="st4" d="M458.5,827.4c0,0,49.2,1,57.5,17.2c1.4,4.3,3.7,4,4.3,5.1c1,2-0.8,18.5-0.8,18.5
					s-14.5,3.3-19.9,3.3V863c0,0-0.7-19-20.4-19s-20.8,20.3-20.8,20.3s0.1,5,1,7.1H346.7c0,0,1.1-4.9,1.1-7.4s-2.1-20.1-20.1-20.1
					s-21,20.6-21,20.6s-0.6,3.9,0.1,6.9c0,0-17.2-3.1-17.2-18.4c0-7.2,4.5-9.4,4.5-9.4l0.2-9c0,0,0.1-4.1,3.5-7.7l19.2-20.4
					c0,0,25.3-2,30.2-2.7c3.8-0.5,44.9-2.2,52.5-0.7c0,0,15.9,1.1,26.6,6.5C436.8,815,458.5,827.4,458.5,827.4z"/>
			</g>
			<g>
				<defs>
					<path id="SVGID_2_" d="M458.5,827.4c0,0,49.2,1,57.5,17.2c1.4,4.3,3.7,4,4.3,5.1c1,2-0.8,18.5-0.8,18.5s-14.5,3.3-19.9,3.3V863
						c0,0-0.7-19-20.4-19s-20.8,20.3-20.8,20.3s0.1,5,1,7.1H346.7c0,0,1.1-4.9,1.1-7.4s-2.1-20.1-20.1-20.1s-21,20.6-21,20.6
						s-0.6,3.9,0.1,6.9c0,0-17.2-3.1-17.2-18.4c0-7.2,4.5-9.4,4.5-9.4l0.2-9c0,0,0.1-4.1,3.5-7.7l19.2-20.4c0,0,25.3-2,30.2-2.7
						c3.8-0.5,44.9-2.2,52.5-0.7c0,0,15.9,1.1,26.6,6.5C436.8,815,458.5,827.4,458.5,827.4z"/>
				</defs>
				<clipPath id="SVGID_3_">
					<use xlink:href="#SVGID_2_"  style="overflow:visible;"/>
				</clipPath>
				<polygon class="st34" points="354.2,872.3 391.6,840.1 401.3,840.1 363.9,872.3 				"/>
			</g>
			<g>
				<defs>
					<path id="SVGID_4_" d="M458.5,827.4c0,0,49.2,1,57.5,17.2c1.4,4.3,3.7,4,4.3,5.1c1,2-0.8,18.5-0.8,18.5s-14.5,3.3-19.9,3.3V863
						c0,0-0.7-19-20.4-19s-20.8,20.3-20.8,20.3s0.1,5,1,7.1H346.7c0,0,1.1-4.9,1.1-7.4s-2.1-20.1-20.1-20.1s-21,20.6-21,20.6
						s-0.6,3.9,0.1,6.9c0,0-17.2-3.1-17.2-18.4c0-7.2,4.5-9.4,4.5-9.4l0.2-9c0,0,0.1-4.1,3.5-7.7l19.2-20.4c0,0,25.3-2,30.2-2.7
						c3.8-0.5,44.9-2.2,52.5-0.7c0,0,15.9,1.1,26.6,6.5C436.8,815,458.5,827.4,458.5,827.4z"/>
				</defs>
				<clipPath id="SVGID_5_">
					<use xlink:href="#SVGID_4_"  style="overflow:visible;"/>
				</clipPath>
				<polygon class="st35" points="373.2,848 397.4,827.2 406.8,827.2 382.6,848 				"/>
			</g>
			<g>
				<defs>
					<path id="SVGID_6_" d="M458.5,827.4c0,0,49.2,1,57.5,17.2c1.4,4.3,3.7,4,4.3,5.1c1,2-0.8,18.5-0.8,18.5s-14.5,3.3-19.9,3.3V863
						c0,0-0.7-19-20.4-19s-20.8,20.3-20.8,20.3s0.1,5,1,7.1H346.7c0,0,1.1-4.9,1.1-7.4s-2.1-20.1-20.1-20.1s-21,20.6-21,20.6
						s-0.6,3.9,0.1,6.9c0,0-17.2-3.1-17.2-18.4c0-7.2,4.5-9.4,4.5-9.4l0.2-9c0,0,0.1-4.1,3.5-7.7l19.2-20.4c0,0,25.3-2,30.2-2.7
						c3.8-0.5,44.9-2.2,52.5-0.7c0,0,15.9,1.1,26.6,6.5C436.8,815,458.5,827.4,458.5,827.4z"/>
				</defs>
				<clipPath id="SVGID_7_">
					<use xlink:href="#SVGID_6_"  style="overflow:visible;"/>
				</clipPath>
				<polygon class="st36" points="376.4,872.3 413.7,840.1 423.4,840.1 386.1,872.3 				"/>
			</g>
			<g>
				<defs>
					<path id="SVGID_8_" d="M458.5,827.4c0,0,49.2,1,57.5,17.2c1.4,4.3,3.7,4,4.3,5.1c1,2-0.8,18.5-0.8,18.5s-14.5,3.3-19.9,3.3V863
						c0,0-0.7-19-20.4-19s-20.8,20.3-20.8,20.3s0.1,5,1,7.1H346.7c0,0,1.1-4.9,1.1-7.4s-2.1-20.1-20.1-20.1s-21,20.6-21,20.6
						s-0.6,3.9,0.1,6.9c0,0-17.2-3.1-17.2-18.4c0-7.2,4.5-9.4,4.5-9.4l0.2-9c0,0,0.1-4.1,3.5-7.7l19.2-20.4c0,0,25.3-2,30.2-2.7
						c3.8-0.5,44.9-2.2,52.5-0.7c0,0,15.9,1.1,26.6,6.5C436.8,815,458.5,827.4,458.5,827.4z"/>
				</defs>
				<clipPath id="SVGID_9_">
					<use xlink:href="#SVGID_8_"  style="overflow:visible;"/>
				</clipPath>
				<polygon class="st37" points="395.3,848 419.6,827.2 429,827.2 404.8,848 				"/>
			</g>
			<g>
				<defs>
					<path id="SVGID_10_" d="M458.5,827.4c0,0,49.2,1,57.5,17.2c1.4,4.3,3.7,4,4.3,5.1c1,2-0.8,18.5-0.8,18.5s-14.5,3.3-19.9,3.3
						V863c0,0-0.7-19-20.4-19s-20.8,20.3-20.8,20.3s0.1,5,1,7.1H346.7c0,0,1.1-4.9,1.1-7.4s-2.1-20.1-20.1-20.1s-21,20.6-21,20.6
						s-0.6,3.9,0.1,6.9c0,0-17.2-3.1-17.2-18.4c0-7.2,4.5-9.4,4.5-9.4l0.2-9c0,0,0.1-4.1,3.5-7.7l19.2-20.4c0,0,25.3-2,30.2-2.7
						c3.8-0.5,44.9-2.2,52.5-0.7c0,0,15.9,1.1,26.6,6.5C436.8,815,458.5,827.4,458.5,827.4z"/>
				</defs>
				<clipPath id="SVGID_11_">
					<use xlink:href="#SVGID_10_"  style="overflow:visible;"/>
				</clipPath>
				<polygon class="st38" points="398.1,872.3 435.5,840.1 445.2,840.1 407.8,872.3 				"/>
			</g>
			<g>
				<defs>
					<path id="SVGID_12_" d="M458.5,827.4c0,0,49.2,1,57.5,17.2c1.4,4.3,3.7,4,4.3,5.1c1,2-0.8,18.5-0.8,18.5s-14.5,3.3-19.9,3.3
						V863c0,0-0.7-19-20.4-19s-20.8,20.3-20.8,20.3s0.1,5,1,7.1H346.7c0,0,1.1-4.9,1.1-7.4s-2.1-20.1-20.1-20.1s-21,20.6-21,20.6
						s-0.6,3.9,0.1,6.9c0,0-17.2-3.1-17.2-18.4c0-7.2,4.5-9.4,4.5-9.4l0.2-9c0,0,0.1-4.1,3.5-7.7l19.2-20.4c0,0,25.3-2,30.2-2.7
						c3.8-0.5,44.9-2.2,52.5-0.7c0,0,15.9,1.1,26.6,6.5C436.8,815,458.5,827.4,458.5,827.4z"/>
				</defs>
				<clipPath id="SVGID_13_">
					<use xlink:href="#SVGID_12_"  style="overflow:visible;"/>
				</clipPath>
				<polygon class="st39" points="417,848 441.3,827.2 450.7,827.2 426.5,848 				"/>
			</g>
			<g>
				<defs>
					<path id="SVGID_14_" d="M458.5,827.4c0,0,49.2,1,57.5,17.2c1.4,4.3,3.7,4,4.3,5.1c1,2-0.8,18.5-0.8,18.5s-14.5,3.3-19.9,3.3
						V863c0,0-0.7-19-20.4-19s-20.8,20.3-20.8,20.3s0.1,5,1,7.1H346.7c0,0,1.1-4.9,1.1-7.4s-2.1-20.1-20.1-20.1s-21,20.6-21,20.6
						s-0.6,3.9,0.1,6.9c0,0-17.2-3.1-17.2-18.4c0-7.2,4.5-9.4,4.5-9.4l0.2-9c0,0,0.1-4.1,3.5-7.7l19.2-20.4c0,0,25.3-2,30.2-2.7
						c3.8-0.5,44.9-2.2,52.5-0.7c0,0,15.9,1.1,26.6,6.5C436.8,815,458.5,827.4,458.5,827.4z"/>
				</defs>
				<clipPath id="SVGID_15_">
					<use xlink:href="#SVGID_14_"  style="overflow:visible;"/>
				</clipPath>
				<polygon class="st40" points="419.8,872.3 457.2,840.1 466.9,840.1 429.5,872.3 				"/>
			</g>
			<g>
				<defs>
					<path id="SVGID_16_" d="M458.5,827.4c0,0,49.2,1,57.5,17.2c1.4,4.3,3.7,4,4.3,5.1c1,2-0.8,18.5-0.8,18.5s-14.5,3.3-19.9,3.3
						V863c0,0-0.7-19-20.4-19s-20.8,20.3-20.8,20.3s0.1,5,1,7.1H346.7c0,0,1.1-4.9,1.1-7.4s-2.1-20.1-20.1-20.1s-21,20.6-21,20.6
						s-0.6,3.9,0.1,6.9c0,0-17.2-3.1-17.2-18.4c0-7.2,4.5-9.4,4.5-9.4l0.2-9c0,0,0.1-4.1,3.5-7.7l19.2-20.4c0,0,25.3-2,30.2-2.7
						c3.8-0.5,44.9-2.2,52.5-0.7c0,0,15.9,1.1,26.6,6.5C436.8,815,458.5,827.4,458.5,827.4z"/>
				</defs>
				<clipPath id="SVGID_17_">
					<use xlink:href="#SVGID_16_"  style="overflow:visible;"/>
				</clipPath>
				<polygon class="st41" points="438.8,848 463,827.2 472.4,827.2 448.2,848 				"/>
			</g>
			<g>
				<defs>
					<path id="SVGID_18_" d="M458.5,827.4c0,0,49.2,1,57.5,17.2c1.4,4.3,3.7,4,4.3,5.1c1,2-0.8,18.5-0.8,18.5s-14.5,3.3-19.9,3.3
						V863c0,0-0.7-19-20.4-19s-20.8,20.3-20.8,20.3s0.1,5,1,7.1H346.7c0,0,1.1-4.9,1.1-7.4s-2.1-20.1-20.1-20.1s-21,20.6-21,20.6
						s-0.6,3.9,0.1,6.9c0,0-17.2-3.1-17.2-18.4c0-7.2,4.5-9.4,4.5-9.4l0.2-9c0,0,0.1-4.1,3.5-7.7l19.2-20.4c0,0,25.3-2,30.2-2.7
						c3.8-0.5,44.9-2.2,52.5-0.7c0,0,15.9,1.1,26.6,6.5C436.8,815,458.5,827.4,458.5,827.4z"/>
				</defs>
				<clipPath id="SVGID_19_">
					<use xlink:href="#SVGID_18_"  style="overflow:visible;"/>
				</clipPath>
				<polygon class="st42" points="441.5,872.3 478.9,840.1 488.6,840.1 451.2,872.3 				"/>
			</g>
			<g>
				<defs>
					<path id="SVGID_20_" d="M458.5,827.4c0,0,49.2,1,57.5,17.2c1.4,4.3,3.7,4,4.3,5.1c1,2-0.8,18.5-0.8,18.5s-14.5,3.3-19.9,3.3
						V863c0,0-0.7-19-20.4-19s-20.8,20.3-20.8,20.3s0.1,5,1,7.1H346.7c0,0,1.1-4.9,1.1-7.4s-2.1-20.1-20.1-20.1s-21,20.6-21,20.6
						s-0.6,3.9,0.1,6.9c0,0-17.2-3.1-17.2-18.4c0-7.2,4.5-9.4,4.5-9.4l0.2-9c0,0,0.1-4.1,3.5-7.7l19.2-20.4c0,0,25.3-2,30.2-2.7
						c3.8-0.5,44.9-2.2,52.5-0.7c0,0,15.9,1.1,26.6,6.5C436.8,815,458.5,827.4,458.5,827.4z"/>
				</defs>
				<clipPath id="SVGID_21_">
					<use xlink:href="#SVGID_20_"  style="overflow:visible;"/>
				</clipPath>
				<polygon class="st43" points="460.3,848 484.5,827.2 493.9,827.2 469.7,848 				"/>
			</g>
		</g>
		<path class="st13" d="M331,826.1l24.4,34.2c0,0,3.5,4.9,7.4,4.9h95.6"/>
		<path class="st13" d="M383.4,806.6c0,0,10.8,29.3,5.7,58.6"/>
		<path class="st13" d="M451,831.5c0,0,5.2,14.4,0,33.8"/>
		<path class="st13" d="M458.5,827.4c0,0,6.7,3.7,8.4,6.4c11.7-1.9,33.4,4.9,33.4,4.9"/>
		<g>
			<rect x="340" y="832.8" class="st7" width="7.5" height="1.6"/>
		</g>
		<g>
			<rect x="393.5" y="832.8" class="st7" width="7.5" height="1.6"/>
		</g>
		<path class="st13" d="M317,810.4l-12.1,13.1c0,0-1,1-1,2.5c0,3.1,11.5,17.7,11.5,17.7"/>
		<path class="st22" d="M289.5,851.1h18.1c2-3.3,7.9-7.5,7.9-7.5H294C293.9,843.6,290.1,845.3,289.5,851.1"/>
		<path class="st21" d="M294.3,833.1c0,3,3.4,2.6,3.4,2.6h11.8l-5.4-8.9h-6.5C295.5,829.1,294.7,831.6,294.3,833.1"/>
		<path class="st22" d="M517.2,847c-0.4-0.6-0.8-1.4-1.1-2.4c-1.4-2.7-4.1-5.1-7.3-7c-10,0-10,3.6-10,3.6l6.6,5.8L517.2,847"/>
		<path class="st12" d="M331,826.1v-3.7c0,0,1.9-8.1,8.3-13.6c0,0,10.8-2.3,44.2-2.3c9.8,0,21.6,0.8,31.7,3.7
			c17.9,5.2,33.2,14.7,41.5,21.1c0,0-24.2-4.7-68.1-4.7C365.1,826.7,331,826.1,331,826.1z"/>
		<path class="st16" d="M456.6,831.5l-17.1-2.3c-2.8-9.8-9.4-13.3-9.4-13.3C440,820.2,451.5,827.5,456.6,831.5"/>
		<path class="st13" d="M331,826.1v-3.7c0,0,1.9-8.1,8.3-13.6c0,0,10.8-2.3,44.2-2.3c9.8,0,21.6,0.8,31.7,3.7
			c17.9,5.2,33.2,14.7,41.5,21.1c0,0-24.2-4.7-68.1-4.7C365.1,826.7,331,826.1,331,826.1z"/>
		<path class="st13" d="M458.5,827.4c0,0,49.2,1,57.5,17.2c1.4,4.3,3.7,4,4.3,5.1c1,2-0.8,18.5-0.8,18.5s-14.5,3.3-19.9,3.3V863
			c0,0-0.7-19-20.4-19s-20.8,20.3-20.8,20.3s0.1,5,1,7.1H346.7c0,0,1.1-4.9,1.1-7.4s-2.1-20.1-20.1-20.1s-21,20.1-21,20.1
			s-0.6,4.3,0.1,7.4c0,0-17.2-3.1-17.2-18.4c0-7.2,4.5-9.4,4.5-9.4l0.2-9c0,0,0.1-4.1,3.5-7.7l19.2-20.4c0,0,25.3-2.3,30.2-2.7
			c2.3-0.2,17.8-1.4,31.8-1.7c8.8-0.1,17.1,0.4,20.6,0.9c0,0,12.8,1.2,26.6,6.5C437.3,813.8,458.5,827.4,458.5,827.4z"/>
		<path class="st13" d="M345.3,808.1c0,0,0.8,6.3,0.8,8.3s-0.5,10-0.5,10"/>
		<path class="st16" d="M377.1,806.6c0,0,3.8,5.6,3.6,20.1h11c0,0-2.6-12.4-5.9-20.1H377.1z"/>
		<g>
			<circle class="st8" cx="327.7" cy="864.2" r="19.3"/>
			<path class="st7" d="M327.7,846.4c9.8,0,17.8,8,17.8,17.8s-8,17.8-17.8,17.8s-17.8-8-17.8-17.8
				C309.9,854.3,317.9,846.4,327.7,846.4 M327.7,843.4c-11.5,0-20.8,9.3-20.8,20.8s9.3,20.8,20.8,20.8s20.8-9.3,20.8-20.8
				S339.2,843.4,327.7,843.4L327.7,843.4z"/>
		</g>
		<circle class="st10" cx="327.7" cy="864.2" r="12.4"/>
		<circle class="st18" cx="327.7" cy="864.2" r="5"/>
		<g>
			<circle class="st8" cx="478.6" cy="864.2" r="19.3"/>
			<path class="st7" d="M478.6,846.4c9.8,0,17.8,8,17.8,17.8s-8,17.8-17.8,17.8s-17.8-8-17.8-17.8
				C460.7,854.3,468.7,846.4,478.6,846.4 M478.6,843.4c-11.5,0-20.8,9.3-20.8,20.8s9.3,20.8,20.8,20.8s20.8-9.3,20.8-20.8
				S490,843.4,478.6,843.4L478.6,843.4z"/>
		</g>
		<circle class="st10" cx="478.6" cy="864.2" r="12.4"/>
		<circle class="st18" cx="478.6" cy="864.2" r="5"/>
		<g>
			<path class="st44" d="M355.9,842c0-0.6-0.1-0.9-0.5-1.3l-0.8,0.7c0.2,0.2,0.2,0.3,0.2,0.7c0,0.6-0.5,1.1-1.1,1.1
				s-1.1-0.5-1.1-1.1c0-0.1,0-0.2,0.1-0.4l-0.8-0.7c-0.1,0.2-0.2,0.4-0.3,1c0,1.2,1,2.1,2.1,2.1C355,844.1,355.9,843.1,355.9,842
				L355.9,842z"/>
			<path class="st45" d="M357,839.4V839l-3.2,2.7v-0.4l3.2-2.7v-0.4l-1.8-1.2c0,0.1,0.1,0.4-0.1,0.8c-0.2,0.5-0.7,0.8-0.9,0.9
				c-0.2,0.1-0.3,0.3-0.3,0.4c0,0.1,0,0.2,0,0.3c0.2,0,0.4,0.2,0.4,0.5s-0.2,0.5-0.5,0.5s-0.5-0.2-0.5-0.5c0-0.2,0.1-0.4,0.4-0.5
				c-0.1-0.2-0.1-0.3-0.1-0.5c0-0.5,0.5-0.9,0.5-0.9c0.4-0.3,0.6-0.6,0.7-0.9c0-0.3-0.1-0.6-0.1-0.6c0.1,0,0.2,0.1,0.3,0.2
				c0.1,0.1,0.1,0.2,0.1,0.2c0.1-0.2,0.1-0.4,0-0.6c0-0.2-0.1-0.4-0.3-0.5c-0.2-0.2-0.4-0.2-0.4-0.2c0,0.1,0.1,0.2,0.1,0.5
				s-0.1,0.4-0.3,0.7c-0.2,0.2-0.5,0.5-0.7,0.8s-0.3,0.5-0.3,0.7c0,0.3,0.1,0.7,0.1,0.7c-0.1-0.1-0.3-0.2-0.4-0.4s-0.2-0.4-0.2-0.7
				s0.1-0.7,0.3-1c0.2-0.2,0.6-0.6,0.7-0.9c0.1-0.3,0.1-0.5,0.1-0.6s-0.1-0.3-0.1-0.3c0.1,0,0.2,0.1,0.2,0.1
				c0.1,0.1,0.1,0.1,0.1,0.1c0-0.1,0-0.3,0-0.5c-0.1-0.3-0.2-0.5-0.4-0.7c-0.2-0.2-0.4-0.2-0.4-0.2c0.1,0.1,0.2,0.2,0.2,0.4
				s0,0.4-0.1,0.6c-0.1,0.3-0.4,0.5-0.6,0.7s-0.4,0.5-0.6,0.8c-0.2,0.4-0.2,0.7-0.1,1.1c0.1,0.4,0.3,0.7,0.3,0.7
				c-0.2-0.1-0.3-0.2-0.4-0.3s-0.2-0.2-0.2-0.4l-1.2,0.8v1.2l3.2,2.7l0.9-0.8l0.8-0.7L357,839.4L357,839.4z"/>
			<polygon class="st44" points="374.5,841.2 374.5,840.3 375.9,840.3 375.9,839.6 374.5,839.6 374.5,838.8 376.1,838.8 376.1,838 
				373.5,838 373.5,841.9 376.1,841.9 376.1,841.2 			"/>
			<polygon class="st44" points="371.1,838 370,838 370,841.9 371.1,841.9 			"/>
			<polygon class="st44" points="360.6,841.1 359.1,841.1 359.1,838 358.1,838 358.1,841.9 360.6,841.9 			"/>
			<polygon class="st44" points="366.2,841.9 367.2,841.9 367.2,838.8 368.1,838.8 368.1,838 365.2,838 365.2,838.8 366.2,838.8 			
				"/>
			<polygon class="st44" points="363.3,838 362.3,838 362.3,841.9 363.3,841.9 			"/>
			<path class="st44" d="M348.2,838H347v3.9h1V841h0.3c1,0,1.6-0.7,1.6-1.5C349.9,838.6,349.4,838,348.2,838L348.2,838z
				 M348.3,840.3H348v-1.5h0.3c0.4,0,0.7,0.3,0.7,0.7S348.6,840.3,348.3,840.3L348.3,840.3z"/>
		</g>
		<path class="st46" d="M382,777.1c-1.2,0-2.2,1-2.2,2.2s1,2.2,2.2,2.2s2.2-1,2.2-2.2S383.2,777.1,382,777.1z"/>
	</g>
</g>
<g id="auto_x27_s_1_" class="st3">
	<g>
		<polygon class="st47" points="2869.8,960.9 2973.5,960.9 2973.3,966 2904.1,966 2898.2,968.3 2875.6,968.3 2873.9,966.6 
			2869.9,966.6 		"/>
		<g>
			<path class="st47" d="M2991.3,975.1c-8.7,0-15.8-7.1-15.8-15.8s7.1-15.8,15.8-15.8s15.8,7.1,15.8,15.8S3000.1,975.1,2991.3,975.1
				z"/>
			<path class="st47" d="M2991.3,945c7.9,0,14.3,6.4,14.3,14.3s-6.4,14.3-14.3,14.3c-7.9,0-14.3-6.4-14.3-14.3
				S2983.4,945,2991.3,945 M2991.3,942c-9.5,0-17.3,7.8-17.3,17.3s7.8,17.3,17.3,17.3s17.3-7.8,17.3-17.3S3000.9,942,2991.3,942
				L2991.3,942z"/>
		</g>
		<g>
			<path class="st47" d="M2852.4,975.1c-8.7,0-15.8-7.1-15.8-15.8s7.1-15.8,15.8-15.8s15.8,7.1,15.8,15.8S2861.2,975.1,2852.4,975.1
				z"/>
			<path class="st47" d="M2852.4,945c7.9,0,14.3,6.4,14.3,14.3s-6.4,14.3-14.3,14.3s-14.3-6.4-14.3-14.3S2844.5,945,2852.4,945
				 M2852.4,942c-9.5,0-17.3,7.8-17.3,17.3s7.8,17.3,17.3,17.3s17.3-7.8,17.3-17.3S2862,942,2852.4,942L2852.4,942z"/>
		</g>
		<path class="st48" d="M2833.5,962.9h-3.9c0,0-10.4-10.8-10.4-17.9c0-7.1,0-15.5,0-15.5l30-26.7c0,0,3.5-3.4,6.7-3.4s78.1,0,78.1,0
			s7.6-0.2,13,5.2l22.9,19.1l53,11.6c0,0,5.8,1.3,4.5,7.2l-3.1,12.7c0,0-2,8.8-8.6,8.8h-6.1c0-8.7-3-13.2-3-13.2s-4.3-7.7-15.1-7.7
			c-11.3,0-15.1,7.7-15.1,7.7s-2.9,4.5-2.9,15.2h-13.3h-56l-5.8,2.4h-22.6l-1.7-1.7h-4V964c0-8.7-2.5-13.2-2.5-13.2s-3.8-7.7-15-7.7
			C2835.7,943,2833.5,962.9,2833.5,962.9z"/>
		<circle class="st49" cx="2852.4" cy="959.3" r="10"/>
		<circle class="st49" cx="2991.3" cy="959.3" r="10"/>
		<g>
			<path class="st47" d="M2839.6,932.4c-2.1,0-3.9-1.7-3.9-3.9s1.7-3.9,3.9-3.9s3.9,1.7,3.9,3.9S2841.7,932.4,2839.6,932.4z"/>
			<path class="st47" d="M2839.6,925.6c1.6,0,2.9,1.3,2.9,2.9c0,1.6-1.3,2.9-2.9,2.9s-2.9-1.3-2.9-2.9
				C2836.7,926.9,2838,925.6,2839.6,925.6 M2839.6,923.6c-2.7,0-4.9,2.2-4.9,4.9s2.2,4.9,4.9,4.9s4.9-2.2,4.9-4.9
				C2844.4,925.8,2842.3,923.6,2839.6,923.6L2839.6,923.6z"/>
		</g>
		<path class="st48" d="M2868.3,905.1h18.6c0,0,3.5,0,3.5,3.5c0,3.9,0,14.3,0,14.3s-0.2,3.3-3.3,3.3s-31.2,0-31.2,0s-5.3,0-5.3-5
			c0-2.9,13.7-15.2,13.7-15.2S2865,905.1,2868.3,905.1z"/>
		<g>
			<rect x="2902.3" y="930.7" class="st47" width="11.4" height="2.5"/>
		</g>
		<path class="st48" d="M2905.5,905h30.1c0,0,1.9,0,2.9,0.9l19.8,17.7c0,0,3.1,2.6-2.3,2.5h-52.3c0,0-2.9,0-2.9-3.3v-14.3
			C2900.8,905.1,2905.5,905,2905.5,905z"/>
		<line class="st48" x1="2819.2" y1="936.2" x2="3024.4" y2="936.2"/>
		<line class="st48" x1="2895.4" y1="899.4" x2="2895.4" y2="968.3"/>
		<line class="st50" x1="2868.5" y1="952.8" x2="2975" y2="952.8"/>
		<line class="st51" x1="2869.8" y1="960.9" x2="2973.5" y2="960.9"/>
		<polyline class="st48" points="2958.9,924.4 2967.2,936.2 2967.2,965.9 		"/>
		<line class="st48" x1="3006.9" y1="951.5" x2="3025.1" y2="951.5"/>
		<line class="st48" x1="2837.3" y1="951.8" x2="2821.4" y2="951.8"/>
		<path class="st48" d="M2826.3,951.8l2.5,5.7c0,0,1,1.6-2.2,1.6s-7.9,0-7.9,0v-7.4h7.6V951.8z"/>
		<path class="st48" d="M3020.2,951.5l-2.3,5.7c0,0-1,1.6,2.1,1.6s10,0,10,0v-7.4h-9.8V951.5z"/>
		<g>
			<path class="st47" d="M3013.7,945c-0.6,0-1-0.4-1-1v-1.6c0-0.6,0.4-1,1-1h5.7c0.6,0,1,0.4,1,1v1.6c0,0.6-0.4,1-1,1H3013.7z"/>
			<path class="st47" d="M3019.4,942.3v1.6h-5.7v-1.6H3019.4 M3019.4,940.3h-5.7c-1.1,0-2,0.9-2,2v1.6c0,1.1,0.9,2,2,2h5.7
				c1.1,0,2-0.9,2-2v-1.6C3021.4,941.2,3020.5,940.3,3019.4,940.3L3019.4,940.3z"/>
		</g>
		<g>
			<path class="st47" d="M2821.3,946.5c-0.6,0-1-0.4-1-1v-8.2c0-0.6,0.4-1,1-1h4.1c0.6,0,1,0.4,1,1v8.2c0,0.6-0.4,1-1,1H2821.3z"/>
			<path class="st47" d="M2825.4,937.3v8.2h-4.1v-8.2H2825.4 M2825.4,935.3h-4.1c-1.1,0-2,0.9-2,2v8.2c0,1.1,0.9,2,2,2h4.1
				c1.1,0,2-0.9,2-2v-8.2C2827.4,936.2,2826.5,935.3,2825.4,935.3L2825.4,935.3z"/>
		</g>
		<line class="st48" x1="2940.8" y1="908.1" x2="2940.8" y2="920.6"/>
		<g>
			<path class="st47" d="M2936.6,929.8c-0.8,0-1.7,0-2.2-0.8c-0.3-0.6-0.3-1.2-0.3-2.7V923c0.1-2.3,0.1-3.3,2.5-3.3h5.2
				c2.5,0,2.5,1,2.5,3.3v3.2c0,1.6,0,2.2-0.3,2.8c-0.5,0.8-1.3,0.8-2.1,0.8H2936.6z"/>
			<path class="st47" d="M2941.8,920.6c1.5,0,1.5,0,1.5,2.3v3.2c0,2.6,0,2.6-1.5,2.6h-5.2c-1.5,0-1.5-0.1-1.5-2.6v-3.2
				c0.1-2.3,0.1-2.3,1.5-2.3C2936.6,920.6,2940.3,920.6,2941.8,920.6 M2941.8,918.6h-5.2c-3.4,0-3.5,2-3.5,4.3c0,0,0,0,0,0.1v3.2
				v0.1c0,1.6,0,2.4,0.5,3.2c0.8,1.3,2.1,1.3,3.1,1.3h5.2c0.9,0,2.3,0,3-1.3c0.4-0.8,0.4-1.6,0.4-3.2v-0.1V923
				C2945.3,920.7,2945.3,918.6,2941.8,918.6L2941.8,918.6z"/>
		</g>
		<circle class="st52" cx="2852.4" cy="959.3" r="4"/>
		<circle class="st52" cx="2991.3" cy="959.3" r="4"/>
	</g>
	<g>
		<line class="st48" x1="1833.2" y1="920.7" x2="1833.2" y2="928.1"/>
		<path class="st48" d="M1907.5,859.9h121.6c0,0,3.3-0.3,3.3,4.6v2.2l10.1,25.8h4.2l0,0c1.1,0,2,0.9,2,2v8.3c0,1.2-0.9,2.1-2.1,2.1
			l0,0v16.4h7.1c0,0,2.2-0.2,2.2,2.2v5.3l-5.2,5.2h-15.2l-2.4-5.7h-51.5l-3,4.6h2.8c0.7,0,1.2,0.8,0.9,1.4l-4.8,9.8h-86.3l-6.9-15.8
			H1833V942h-11l-5.9-7.1v-11.3c0,0-0.1-2.7,2.7-2.7h3v-13.3l16.5-8.4l47.2-8.7l16.3-26.9C1902,863.5,1903.9,859.9,1907.5,859.9z"/>
		<rect x="1944.9" y="866.6" class="st48" width="10.5" height="28"/>
		<line class="st48" x1="1893.6" y1="949" x2="1878.2" y2="913.4"/>
		<polyline class="st48" points="2039.4,942.6 2025.9,910.2 1988.3,910.2 		"/>
		<path class="st48" d="M2033.3,928.1l-2.9-6.9h16.3h7.1c0,0,2.2-0.2,2.2,2.2v5.3l-5.2,5.2h-15.2L2033.3,928.1z"/>
		<path class="st48" d="M2042.6,892.4h-3.8c0,0-5.2-0.2-5.2,6.3c0,6.3,5.2,6,5.2,6h7.9c1.4,0,2.1-0.7,2.1-2.1v-7.8
			c0-1.4-1.1-2.5-2.5-2.5L2042.6,892.4L2042.6,892.4z"/>
		<path class="st48" d="M2032.5,866.6H2007c0,0-4.6,0-4.6,5.7c0,4.9,5.2,14.6,9.9,14.6h28.1L2032.5,866.6z"/>
		<line class="st48" x1="1933.9" y1="903.5" x2="1946.9" y2="903.5"/>
		<line class="st48" x1="1988.3" y1="892.4" x2="2001.2" y2="892.4"/>
		<g>
			<path class="st47" d="M2015.9,905.8c-3.1,0-5.6-2.5-5.6-5.6V897c0-3.1,2.5-5.6,5.6-5.6h5.7c3.1,0,5.6,2.5,5.6,5.6v3.2
				c0,3.1-2.5,5.6-5.6,5.6H2015.9z"/>
			<path class="st47" d="M2021.7,892.4c2.5,0,4.6,2.1,4.6,4.6v3.2c0,2.5-2.1,4.6-4.6,4.6h-5.7c-2.5,0-4.6-2.1-4.6-4.6V897
				c0-2.5,2.1-4.6,4.6-4.6H2021.7 M2021.7,890.4h-5.7c-3.6,0-6.6,3-6.6,6.6v3.2c0,3.6,3,6.6,6.6,6.6h5.7c3.6,0,6.6-3,6.6-6.6V897
				C2028.3,893.4,2025.3,890.4,2021.7,890.4L2021.7,890.4z"/>
		</g>
		<line class="st48" x1="2039.4" y1="910.2" x2="2025.9" y2="910.2"/>
		<polyline class="st48" points="1993.5,910.2 1978.7,932.7 1886.6,932.7 		"/>
		<line class="st48" x1="1892.2" y1="932.7" x2="1892.2" y2="900.3"/>
		<path class="st48" d="M1858.2,903c0.2,0,15.7,0,15.7,0l8-3.1"/>
		<line class="st48" x1="1833.2" y1="920.7" x2="1822" y2="920.7"/>
		<path class="st48" d="M1833.2,928.1h51.3l-6.4-14.7h6.6h-42.6c-0.2,0-0.4,0.1-0.6,0.2l-8.4,7.1L1833.2,928.1"/>
		<polygon class="st48" points="2033.3,928.1 1981.8,928.1 1993.5,910.2 2025.9,910.2 		"/>
		<line class="st48" x1="1952.9" y1="932.7" x2="1952.9" y2="904.5"/>
		<line class="st48" x1="1900.1" y1="866.6" x2="1994.8" y2="866.6"/>
		<path class="st48" d="M1907.3,866.6c0,3.7-10,28-10,28"/>
		<path class="st48" d="M1885.7,890.4c0,0,2.1,3.4,6,4.1c1.7,0.3,5.6,0.2,5.6,0.2h77.1c0,0,7,0,7-5.9v-16c0,0,0.2-6.1-5.6-6.1"/>
		<path class="st48" d="M1970.3,922.8c0,0,11-16.5,11-34.1"/>
		<path class="st48" d="M1978.7,932.7h-92.2l4.9,11.2h88.3l4.8-9.8c0.3-0.7-0.2-1.4-0.9-1.4H1978.7z"/>
		<path class="st48" d="M1944.9,894.6h-47.6c0,0,10-24.2,10-28l0,0h37.6V894.6z"/>
		<path class="st48" d="M1974.4,894.6h-19v-28h20.4c5.9,0,5.6,6.1,5.6,6.1v16C1981.3,894.6,1974.4,894.6,1974.4,894.6z"/>
		<path class="st48" d="M1819.7,907.4h8.5c1.4,0,2.5,1.1,2.5,2.5v2.5c0,1.4-1.1,2.5-2.5,2.5h-8.5c-0.8,0-1.5-0.7-1.5-1.5v-4.5
			C1818.2,908.1,1818.9,907.4,1819.7,907.4z"/>
		<g>
			<g>
				<circle class="st47" cx="2010.1" cy="948.7" r="26.5"/>
				<path class="st47" d="M2010.1,923.7c13.8,0,25,11.2,25,25s-11.2,25-25,25s-25-11.2-25-25S1996.3,923.7,2010.1,923.7
					 M2010.1,920.7c-15.4,0-28,12.6-28,28s12.6,28,28,28s28-12.6,28-28S2025.5,920.7,2010.1,920.7L2010.1,920.7z"/>
			</g>
			<circle class="st51" cx="2010.1" cy="948.7" r="17.5"/>
			<circle class="st53" cx="2010.1" cy="948.7" r="7"/>
		</g>
		<g>
			<g>
				<circle class="st47" cx="1861.6" cy="948.7" r="26.5"/>
				<path class="st47" d="M1861.6,923.7c13.8,0,25,11.2,25,25s-11.2,25-25,25s-25-11.2-25-25S1847.8,923.7,1861.6,923.7
					 M1861.6,920.7c-15.4,0-28,12.6-28,28s12.6,28,28,28s28-12.6,28-28S1877,920.7,1861.6,920.7L1861.6,920.7z"/>
			</g>
			<circle class="st51" cx="1861.6" cy="948.7" r="17.5"/>
			<circle class="st53" cx="1861.6" cy="948.7" r="7"/>
		</g>
		<path class="st48" d="M1911.3,880.9h3.4c0.8,0,1.5,0.7,1.5,1.5v17.1c0,0.8-0.7,1.5-1.5,1.5h-3.4c-2.2,0-4-1.8-4-4v-12.2
			C1907.3,882.7,1909.1,880.9,1911.3,880.9z"/>
		<path class="st48" d="M1822,920.7h11.2v7.4v13.7h-11l-5.9-7.1v-11.3c0,0-0.1-2.7,2.7-2.7L1822,920.7L1822,920.7z"/>
	</g>
	<g>
		<g>
			<path class="st47" d="M1658.9,975.1c-8.7,0-15.8-7.1-15.8-15.8s7.1-15.8,15.8-15.8s15.8,7.1,15.8,15.8S1667.6,975.1,1658.9,975.1
				z"/>
			<path class="st47" d="M1658.9,945c7.9,0,14.3,6.4,14.3,14.3s-6.4,14.3-14.3,14.3s-14.3-6.4-14.3-14.3S1651,945,1658.9,945
				 M1658.9,942c-9.5,0-17.3,7.8-17.3,17.3s7.8,17.3,17.3,17.3s17.3-7.8,17.3-17.3S1668.5,942,1658.9,942L1658.9,942z"/>
		</g>
		<g>
			<path class="st47" d="M1762.2,975.1c-8.7,0-15.8-7.1-15.8-15.8s7.1-15.8,15.8-15.8s15.8,7.1,15.8,15.8S1771,975.1,1762.2,975.1z"
				/>
			<path class="st47" d="M1762.2,945c7.9,0,14.3,6.4,14.3,14.3s-6.4,14.3-14.3,14.3s-14.3-6.4-14.3-14.3S1754.3,945,1762.2,945
				 M1762.2,942c-9.5,0-17.3,7.8-17.3,17.3s7.8,17.3,17.3,17.3s17.3-7.8,17.3-17.3S1771.8,942,1762.2,942L1762.2,942z"/>
		</g>
		<circle class="st49" cx="1762.2" cy="959.3" r="12.5"/>
		<circle class="st49" cx="1658.9" cy="959.3" r="12.5"/>
		<circle class="st49" cx="1762.2" cy="959.3" r="6.5"/>
		<circle class="st49" cx="1658.9" cy="959.3" r="6.5"/>
		<path class="st47" d="M1732,956.4l12.5,0.1c-0.8,3.6-1,7.7-1,8.4c0,3-1.6,3-1.6,3s-61,0-62.8,0c-1.5,0-1.4-3-1.4-3s0-2.2-0.4-5
			c1.5-0.1,3.6-0.2,4.9-0.3c0.4,0.7,0.7,1,1.1,1.3c3.3,2.5,9.2,1.7,9.2,1.7s33.6-3.9,35.9-4.1C1729.5,958.4,1730.9,957.4,1732,956.4
			z"/>
		<path class="st47" d="M1775.1,917.8c0.3,2,0.3,4,0.3,4v14.5c3.5,0,4.7,0.9,4.7,0.9c4.5,10.8,1.2,24,1.2,24s-1-18.7-19.4-18.7
			c-10.3,0-15.3,8-17.2,14l-12.5-0.1c1.4-1.2,2.2-2.4,2.2-2.4s27.1-33.1,28.5-34.6c1.3-1.6,3.9-1.6,3.9-1.6L1775.1,917.8
			L1775.1,917.8z"/>
		<line class="st48" x1="1744.5" y1="956.5" x2="1732" y2="956.4"/>
		<path class="st47" d="M1657.3,925.6l90.4-10.6l-0.1,6.3c-0.9,6.8-13.8,23.7-13.8,23.7c-5.1,7.4-11.4,8.8-11.4,8.8l-21.8,3.8
			c0,0-8.3,1.4-23.2,2.3c-1.1-6.6-5.1-17.4-18.6-17.4c-19.7,0-19,22.4-19,22.4h-5.4l2.4-4v-10.2c0-2.8,2.6-4.1,2.6-4.1v-5.3
			c0-2.7,1.2-4.2,1.2-4.2l8.5-8.7C1651.1,926.4,1657.3,925.6,1657.3,925.6z"/>
		<path class="st47" d="M1682.1,959.6c0,0,0.1,0.5,1.2,1.3c3.3,2.5,9.2,1.7,9.2,1.7s33.6-3.9,35.9-4.1c2.4-0.3,5.8-4.5,5.8-4.5
			l30-36.2l-14.4-24.2h-40.7c0,0-6.6,0.7-11.2,4.1l-40.6,27.8l11.7-1.4c0,0,23.2-17,31.7-21.9c8.5-5,17.9-5,17.9-5h14.7
			c0,0,9.6,0,11.5,5.4c1.8,5.3,3.8,11.8,2.9,18.6s-13.8,23.7-13.8,23.7c-5.1,7.4-11.4,8.8-11.4,8.8l-21.8,3.8
			C1700.5,957.7,1694.1,958.8,1682.1,959.6L1682.1,959.6z"/>
		<path class="st47" d="M1775.4,921.8c0,0,0-5-1.1-7.3c-1.1-2.4-9.5-16.7-9.5-16.7l1.4-2.7c0,0,0.4-1.3-1.4-1.3s-15,0-15,0
			l14.5,24.5l2.2-0.4h8.6"/>
		<path class="st48" d="M1634.3,964.9h5.4c0,0-0.7-22.4,19-22.4s19,22.4,19,22.4s-0.1,3,1.4,3c1.8,0,62.8,0,62.8,0s1.6,0,1.6-3
			c0-2.1-0.1-22.4,18.3-22.4s19.4,18.7,19.4,18.7s3.3-13.2-1.2-24c0,0-1.2-0.9-4.7-0.9v-14.5c0,0,0-5-1.1-7.3
			c-1.1-2.4-9.5-16.7-9.5-16.7l1.4-2.7c0,0,0.4-1.3-1.4-1.3s-55.7,0-55.7,0s-4.7,0-11.2,4.1l-40.6,27.8c0,0-6.2,0.7-8.2,2.8
			l-8.5,8.7c0,0-1.2,1.5-1.2,4.2v5.3c0,0-2.6,1.3-2.6,4.1V961L1634.3,964.9z"/>
		<path class="st48" d="M1775.1,917.8h-8.6c0,0-2.6,0-3.9,1.6s-28.5,34.6-28.5,34.6s-3.4,4.2-5.8,4.5s-35.9,4.1-35.9,4.1
			s-5.9,0.8-9.2-1.7c-3.3-2.5-5.7-18.2-5.7-18.2s-1.2-10,0-24.7"/>
		<g>
			<polygon class="st47" points="1680.2,916.1 1682.6,922.7 1668.9,924.3 			"/>
		</g>
		<line class="st48" x1="1764.4" y1="918.2" x2="1749.8" y2="893.7"/>
		<path class="st47" d="M1687.3,921.4v-6.9l-3.7-0.4c0,0,8.5-7.2,17-12.1c8.5-5,17.9-5,17.9-5h14.7c0,0,9.6,0,11.5,5.4
			c1.8,5.3,3.2,12.3,3.2,12.3L1687.3,921.4z"/>
		<line class="st48" x1="1732.6" y1="897.4" x2="1731.5" y2="916.7"/>
		<line class="st48" x1="1735.6" y1="916.5" x2="1657.3" y2="925.6"/>
		<line class="st48" x1="1677.2" y1="937.9" x2="1730" y2="931.2"/>
		<line class="st48" x1="1639.4" y1="946.7" x2="1646.8" y2="942.2"/>
		<line class="st48" x1="1782.4" y1="949" x2="1776.5" y2="949"/>
		<line class="st48" x1="1775.4" y1="936.3" x2="1768.5" y2="936.3"/>
		<g>
			<path class="st47" d="M1770.7,934.9c-1.3,0-3.4-1-3.4-3.7s2-3.7,3.4-3.7h3.1c0.6,0,1,0.4,1,1v5.4c0,0.6-0.4,1-1,1H1770.7z"/>
			<path class="st47" d="M1773.8,928.5v5.4h-3.1c0,0-2.4,0-2.4-2.7s2.4-2.7,2.4-2.7H1773.8 M1773.8,926.5h-3.1
				c-1.8,0-4.4,1.3-4.4,4.7s2.6,4.7,4.4,4.7h3.1c1.1,0,2-0.9,2-2v-5.4C1775.8,927.4,1774.9,926.5,1773.8,926.5L1773.8,926.5z"/>
		</g>
		<path class="st48" d="M1747.3,922.5h-6.3c0,0-5.2,0-5.2-5.1s5.2-5.1,5.2-5.1h6.3"/>
		<path class="st49" d="M1747.7,919.4h-4.2c0,0-3.2,0-3.2-1.7s3.2-1.7,3.2-1.7h4.2"/>
		<g>
			<path class="st47" d="M1770.7,926.6c-1.3,0-3.4-1-3.4-3.7s2-3.7,3.4-3.7h3.1c0.6,0,1,0.4,1,1v5.4c0,0.6-0.4,1-1,1H1770.7z"/>
			<path class="st47" d="M1773.8,920.2v5.4h-3.1c0,0-2.4,0-2.4-2.7s2.4-2.7,2.4-2.7H1773.8 M1773.8,918.2h-3.1
				c-1.8,0-4.4,1.3-4.4,4.7s2.6,4.7,4.4,4.7h3.1c1.1,0,2-0.9,2-2v-5.4C1775.8,919.1,1774.9,918.2,1773.8,918.2L1773.8,918.2z"/>
		</g>
		<g>
			<path class="st47" d="M1643.5,941c-0.9,0-1.5-0.4-1.7-0.7c-1.6-1.8,0.6-5.3,3.4-7.9c2.3-2.1,4.7-3.3,6.4-3.3
				c0.9,0,1.5,0.4,1.7,0.7c0.5,0.6,1,1.7-0.1,3.8c-0.7,1.3-1.8,2.8-3.2,4.1C1647.6,939.7,1645.2,941,1643.5,941L1643.5,941z"/>
			<path class="st47" d="M1651.5,930.1c0.4,0,0.8,0.1,1,0.4c0.9,1-0.5,3.9-3.3,6.4c-2.1,1.9-4.3,3.1-5.7,3.1c-0.4,0-0.8-0.1-1-0.4
				c-0.9-1,0.5-3.9,3.3-6.4C1647.9,931.3,1650.1,930.1,1651.5,930.1 M1651.5,928.1c-1.9,0-4.6,1.3-7,3.6c-1.5,1.4-2.7,2.9-3.5,4.4
				c-1.4,2.7-0.6,4.3,0.1,4.9c0.4,0.5,1.2,1,2.5,1c1.9,0,4.6-1.3,7-3.6c3.2-3,5.5-7,3.4-9.3C1653.6,928.7,1652.8,928.1,1651.5,928.1
				L1651.5,928.1z"/>
		</g>
		<line class="st48" x1="1641.1" y1="955.8" x2="1636.8" y2="955.8"/>
		<path class="st48" d="M1668.9,924.3c0,0,23.2-17,31.7-21.9c8.5-5,17.9-5,17.9-5h14.7c0,0,9.6,0,11.5,5.4
			c1.8,5.3,3.8,11.8,2.9,18.6s-13.8,23.7-13.8,23.7c-5.1,7.4-11.4,8.8-11.4,8.8l-21.8,3.8c0,0-8.3,1.4-23.2,2.3"/>
		<g>
			<path class="st47" d="M1683.4,922.7c-0.4,0-1.3-0.1-2.1-0.6c-0.8-0.5-1.7-1.6-1.7-3.7c0-3.5,2.5-4.4,3.9-4.4h3.9c0.6,0,1,0.4,1,1
				v6.8c0,0.6-0.4,1-1,1L1683.4,922.7v-1V922.7z"/>
			<path class="st47" d="M1683.4,914.9L1683.4,914.9h3.9v6.8h-3.9c0,0,0,0-0.1,0c-0.4,0-2.9-0.1-2.9-3.4
				C1680.5,915,1683,914.9,1683.4,914.9 M1683.4,912.9c-2.4,0-4.9,1.7-4.9,5.4s2.5,5.4,4.9,5.4h0.1h3.8c1.1,0,2-0.9,2-2v-6.8
				c0-1.1-0.9-2-2-2L1683.4,912.9L1683.4,912.9L1683.4,912.9z"/>
		</g>
		<line class="st48" x1="1687.6" y1="919.1" x2="1680.2" y2="919.1"/>
		<g>
			<path class="st47" d="M1687.3,919.4h-6.8c0,0,0.1,0.7,0.5,1.3c0.5,0.6,1.3,1.1,2.4,1.1h3.9V919.4z"/>
		</g>
	</g>
</g>
<g id="borden_1_" class="st3">
	<g>
		<path class="st54" d="M1628.4,890.2v25.6c0,0.9-0.3,1.7-1,2.3c-0.6,0.6-1.5,1-2.3,1h-23.4c-0.9,0-1.7-0.3-2.3-1
			c-0.6-0.6-1-1.5-1-2.3v-25.6c0-0.9,0.3-1.7,1-2.3c0.6-0.6,1.5-1,2.3-1h23.4c0.9,0,1.7,0.3,2.3,1
			C1628,888.5,1628.4,889.3,1628.4,890.2z"/>
		<g>
			<path class="st47" d="M1614.9,893.3c3.4,0,6.1,2.7,6.1,6.1c0,3.4-2.7,6.1-6.1,6.1c2.4,0,3.2-2.7,3.2-6.1
				S1617.3,893.3,1614.9,893.3z"/>
			<path class="st47" d="M1614.9,893.3c2.4,0,4.3,2.7,4.3,6.1c0,3.4-1.9,6.1-4.3,6.1h-5v6.2h-3.5v-18.4L1614.9,893.3L1614.9,893.3z
				 M1617.5,899.4c0-1.4-1.2-2.6-2.6-2.6h-5v5.2h5C1616.3,902,1617.5,900.8,1617.5,899.4z"/>
		</g>
		<line class="st55" x1="1613.7" y1="959.6" x2="1613.7" y2="914.8"/>
	</g>
	<g>
		<path class="st54" d="M3061.4,890.2v25.6c0,0.9-0.3,1.7-1,2.3s-1.5,1-2.3,1h-23.4c-0.9,0-1.7-0.3-2.3-1c-0.6-0.6-1-1.5-1-2.3
			v-25.6c0-0.9,0.3-1.7,1-2.3c0.6-0.6,1.5-1,2.3-1h23.4c0.9,0,1.7,0.3,2.3,1S3061.4,889.3,3061.4,890.2z"/>
		<g>
			<path class="st47" d="M3047.9,893.3c3.4,0,6.1,2.7,6.1,6.1c0,3.4-2.7,6.1-6.1,6.1c2.4,0,3.2-2.7,3.2-6.1
				C3051.1,896,3050.3,893.3,3047.9,893.3z"/>
			<path class="st47" d="M3047.9,893.3c2.4,0,4.3,2.7,4.3,6.1c0,3.4-1.9,6.1-4.3,6.1h-5v6.2h-3.5v-18.4L3047.9,893.3L3047.9,893.3z
				 M3050.5,899.4c0-1.4-1.2-2.6-2.6-2.6h-5v5.2h5C3049.3,902,3050.5,900.8,3050.5,899.4z"/>
		</g>
		<line class="st55" x1="3046.7" y1="959.6" x2="3046.7" y2="914.8"/>
	</g>
</g>
</svg>
