<?xml version="1.0" encoding="UTF-8"?>
<svg width="419px" height="344px" viewBox="0 0 419 344" version="1.1" xmlns="http://www.w3.org/2000/svg" xmlns:xlink="http://www.w3.org/1999/xlink">
    <!-- Generator: Sketch 43.1 (39012) - http://www.bohemiancoding.com/sketch -->
    <title>Group</title>
    <desc>Created with Sketch.</desc>
    <defs>
        <rect id="path-1" x="36" y="333" width="150" height="75"></rect>
        <mask id="mask-2" maskContentUnits="userSpaceOnUse" maskUnits="objectBoundingBox" x="0" y="0" width="150" height="75" fill="white">
            <use xlink:href="#path-1"></use>
        </mask>
    </defs>
    <g id="Welcome" stroke="none" stroke-width="1" fill="none" fill-rule="evenodd">
        <g id="splash-combi-liggend" transform="translate(-377.000000, 0.000000)">
            <g id="Group" transform="translate(378.000000, -64.000000)">
                <text id="Politieen-socia" font-family="BLOKKNeue-Regular, BLOKK Neue" font-size="12" font-weight="normal" fill="#FFFFFF">
                    <tspan x="42" y="348">Politieen socia</tspan>
                </text>
                <text id="ssask-clak-socia" font-family="BLOKKNeue-Regular, BLOKK Neue" font-size="12" font-weight="normal" fill="#FFFFFF">
                    <tspan x="42" y="358">ssask clak socia</tspan>
                </text>
                <text id="ajcbvabaiaobvdda" font-family="BLOKKNeue-Regular, BLOKK Neue" font-size="12" font-weight="normal" fill="#FFFFFF">
                    <tspan x="42" y="368">ajcbvabaiaobvdda</tspan>
                </text>
                <text id="Politaenaaaa-soci" font-family="BLOKKNeue-Regular, BLOKK Neue" font-size="12" font-weight="normal" fill="#FFFFFF">
                    <tspan x="42" y="378">Politaenaaaa soci</tspan>
                </text>
                <text id="Politie-iuabuidvb" font-family="BLOKKNeue-Regular, BLOKK Neue" font-size="12" font-weight="normal" fill="#FFFFFF">
                    <tspan x="42" y="388">Politie iuabuidvb</tspan>
                </text>
                <text id="aasdcbbiobv" font-family="BLOKKNeue-Regular, BLOKK Neue" font-size="12" font-weight="normal" fill="#FFFFFF">
                    <tspan x="42" y="398">aasdcbbiobv</tspan>
                </text>
                <use id="Rectangle-3" stroke="#FFFFFF" mask="url(#mask-2)" stroke-width="4" opacity="0.5" stroke-dasharray="1,3" xlink:href="#path-1"></use>
                <circle id="Oval" stroke="#FFFFFF" cx="402" cy="164" r="15"></circle>
                <circle id="Oval-Copy" stroke="#FFFFFF" cx="15" cy="320" r="15"></circle>
                <circle id="Oval" fill="#FFFFFF" cx="401.5" cy="164.5" r="2.5"></circle>
                <circle id="Oval-Copy-2" fill="#FFFFFF" cx="15.5" cy="320.5" r="2.5"></circle>
                <path d="M15.5,320.5 L402.383983,164" id="Path-2" stroke="#FFFFFF"></path>
                <path d="M346.5,0.5 L402.383983,164" id="Path-2" stroke="#FFFFFF"></path>
                <path d="M37,340 L37,337 C37,335.343146 38.3465171,334 40,334 L43,334" id="Path-3" stroke="#FFFFFF" stroke-width="2"></path>
                <path d="M179,340 L179,337 C179,335.343146 180.346517,334 182,334 L185,334" id="Path-3-Copy" stroke="#FFFFFF" stroke-width="2" transform="translate(182.000000, 337.000000) rotate(-270.000000) translate(-182.000000, -337.000000) "></path>
                <path d="M37,407 L37,404 C37,402.343146 38.3465171,401 40,401 L43,401" id="Path-3" stroke="#FFFFFF" stroke-width="2" transform="translate(40.000000, 404.000000) rotate(-90.000000) translate(-40.000000, -404.000000) "></path>
                <path d="M179,407 L179,404 C179,402.343146 180.346517,401 182,401 L185,401" id="Path-3-Copy" stroke="#FFFFFF" stroke-width="2" transform="translate(182.000000, 404.000000) rotate(-180.000000) translate(-182.000000, -404.000000) "></path>
            </g>
        </g>
    </g>
</svg>